<?xml version="1.0" encoding="UTF-8" standalone="yes"?>
<!DOCTYPE svg PUBLIC "-//W3C//DTD SVG 1.1//EN" "http://www.w3.org/Graphics/SVG/1.1/DTD/svg11.dtd">

<svg width="600" height="500" viewBox="0 0 600 500" xmlns="http://www.w3.org/2000/svg" xmlns:xlink="http://www.w3.org/1999/xlink" version="1.1" baseProfile="full">
    <g transform="scale(1,-1) translate(0,-500)">
        <path d="M 9.000000 9.000000 L 2508.999905 9.000000 L 2508.999905 2092.333254 L 9.000000 2092.333254 Z" transform="scale(0.240000,0.240000) translate(-9.000000,-9.000000)" fill="#0082dd" opacity="1.000000"></path>
        <path d="M 8.559316 235.450058 L 169.085154 235.450058 L 169.085154 208.470925 L 37.636825 208.470925 L 37.636825 141.622631 L 159.192805 141.622631 L 159.192805 116.142339 L 37.636825 116.142339 L 37.636825 41.500072 L 171.333415 41.500072 L 171.333415 15.270360 L 8.559316 15.270360 Z M 204.757563 236.199478 L 230.987275 236.199478 L 230.987275 156.311269 Q 239.830435 167.852343 252.120928 173.922647 Q 264.411422 179.992952 278.800293 179.992952 Q 308.777107 179.992952 327.437673 159.383893 Q 346.098240 138.774833 346.098240 98.605903 Q 346.098240 60.535349 327.662499 35.354825 Q 309.226759 10.174302 276.552032 10.174302 Q 258.266175 10.174302 245.675913 19.017462 Q 238.181710 24.263404 229.638318 35.804478 L 229.638318 15.270360 L 204.757563 15.270360 Z M 274.903307 34.005869 Q 296.786381 34.005869 307.652976 51.392421 Q 318.519571 68.778973 318.519571 97.256946 Q 318.519571 122.587354 307.652976 139.224485 Q 296.786381 155.861617 275.652727 155.861617 Q 257.216987 155.861617 243.352710 142.222167 Q 229.488434 128.582717 229.488434 97.256946 Q 229.488434 74.624452 235.184029 60.535349 Q 245.825797 34.005869 274.903307 34.005869 Z M 441.274624 32.656912 Q 468.103872 32.656912 478.071163 52.966204 Q 488.038453 73.275495 488.038453 98.156250 Q 488.038453 120.638861 480.844018 134.727963 Q 469.452829 156.910806 441.574392 156.910806 Q 416.843520 156.910806 405.602215 138.025413 Q 394.360910 119.140020 394.360910 92.460656 Q 394.360910 66.830480 405.602215 49.743696 Q 416.843520 32.656912 441.274624 32.656912 Z M 442.323812 180.442604 Q 473.349815 180.442604 494.783236 159.758603 Q 516.216658 139.074601 516.216658 98.905671 Q 516.216658 60.085697 497.331266 34.755289 Q 478.445873 9.424881 438.726595 9.424881 Q 405.602215 9.424881 386.117286 31.832550 Q 366.632357 54.240218 366.632357 92.011004 Q 366.632357 132.479702 387.166475 156.461153 Q 407.700592 180.442604 442.323812 180.442604 Z M 560.732227 175.796198 L 591.608345 49.294044 L 622.934116 175.796198 L 653.210698 175.796198 L 684.686352 50.043464 L 717.510963 175.796198 L 744.490096 175.796198 L 697.876150 15.270360 L 669.847829 15.270360 L 637.173102 139.524254 L 605.547564 15.270360 L 577.519243 15.270360 L 531.205065 175.796198 Z M 841.764857 235.450058 L 876.537961 235.450058 L 939.789038 129.631905 L 1003.040115 235.450058 L 1037.963103 235.450058 L 954.777445 104.001729 L 954.777445 15.270360 L 924.950515 15.270360 L 924.950515 104.001729 Z M 1080.680063 57.987320 Q 1080.680063 46.296363 1089.223455 39.551579 Q 1097.766847 32.806796 1109.457804 32.806796 Q 1123.696791 32.806796 1137.036473 39.401695 Q 1159.519083 50.343232 1159.519083 75.223988 L 1159.519083 96.957178 Q 1154.572909 93.809612 1146.778937 91.711235 Q 1138.984966 89.612859 1131.490762 88.713554 L 1115.153399 86.615177 Q 1100.464760 84.666684 1093.120441 80.469930 Q 1080.680063 73.425379 1080.680063 57.987320 Z M 1146.029517 112.545121 Q 1155.322329 113.744194 1158.469895 120.339093 Q 1160.268504 123.936310 1160.268504 130.681093 Q 1160.268504 144.470428 1150.451097 150.690617 Q 1140.633691 156.910806 1122.347834 156.910806 Q 1101.214180 156.910806 1092.371020 145.519616 Q 1087.424846 139.224485 1085.926005 126.784108 L 1060.745482 126.784108 Q 1061.494902 156.461153 1080.005585 168.077169 Q 1098.516267 179.693184 1122.947370 179.693184 Q 1151.275460 179.693184 1168.961780 168.901531 Q 1186.498216 158.109878 1186.498216 135.327500 L 1186.498216 42.849029 Q 1186.498216 38.652275 1188.221883 36.104246 Q 1189.945549 33.556217 1195.491260 33.556217 Q 1197.289869 33.556217 1199.538130 33.781043 Q 1201.786391 34.005869 1204.334420 34.455521 L 1204.334420 14.520940 Q 1198.039289 12.722331 1194.741840 12.272679 Q 1191.444390 11.823027 1185.748795 11.823027 Q 1171.809577 11.823027 1165.514446 21.715375 Q 1162.216997 26.961318 1160.868040 36.553898 Q 1152.624416 25.762245 1137.186357 17.818389 Q 1121.748298 9.874534 1103.162673 9.874534 Q 1080.829947 9.874534 1066.665902 23.439042 Q 1052.501858 37.003550 1052.501858 57.387784 Q 1052.501858 79.720510 1066.441076 92.011004 Q 1080.380295 104.301497 1103.012789 107.149295 Z M 1243.154394 175.796198 L 1274.030512 49.294044 L 1305.356283 175.796198 L 1335.632865 175.796198 L 1367.108519 50.043464 L 1399.933130 175.796198 L 1426.912263 175.796198 L 1380.298317 15.270360 L 1352.269996 15.270360 L 1319.595269 139.524254 L 1287.969731 15.270360 L 1259.941410 15.270360 L 1213.627232 175.796198 Z M 1468.430150 65.631407 Q 1469.629223 52.141841 1475.174933 44.947406 Q 1485.367050 31.907492 1510.547573 31.907492 Q 1525.535980 31.907492 1536.927170 38.427449 Q 1548.318359 44.947406 1548.318359 58.586856 Q 1548.318359 68.928857 1539.175431 74.324683 Q 1533.329952 77.622133 1516.093284 81.968771 L 1494.659862 87.364597 Q 1474.125745 92.460656 1464.383280 98.755787 Q 1446.996728 109.697324 1446.996728 129.032369 Q 1446.996728 151.814747 1463.409034 165.903850 Q 1479.821339 179.992952 1507.549892 179.992952 Q 1543.821837 179.992952 1559.859432 158.709414 Q 1569.901665 145.219848 1569.601897 129.631905 L 1544.121605 129.631905 Q 1543.372185 138.774833 1537.676590 146.269037 Q 1528.383778 156.910806 1505.451515 156.910806 Q 1490.163340 156.910806 1482.294426 151.065327 Q 1474.425513 145.219848 1474.425513 135.627268 Q 1474.425513 125.135383 1484.767514 118.840252 Q 1490.762876 115.093150 1502.453834 112.245353 L 1520.290038 107.898715 Q 1549.367547 100.854164 1559.259896 94.259265 Q 1574.997723 83.917264 1574.997723 61.734422 Q 1574.997723 40.301000 1558.735302 24.713057 Q 1542.472880 9.125113 1509.198617 9.125113 Q 1473.376324 9.125113 1458.462859 25.387535 Q 1443.549395 41.649956 1442.500206 65.631407 Z M 1669.574571 32.656912 Q 1696.403819 32.656912 1706.371110 52.966204 Q 1716.338400 73.275495 1716.338400 98.156250 Q 1716.338400 120.638861 1709.143965 134.727963 Q 1697.752776 156.910806 1669.874339 156.910806 Q 1645.143468 156.910806 1633.902162 138.025413 Q 1622.660857 119.140020 1622.660857 92.460656 Q 1622.660857 66.830480 1633.902162 49.743696 Q 1645.143468 32.656912 1669.574571 32.656912 Z M 1670.623759 180.442604 Q 1701.649762 180.442604 1723.083184 159.758603 Q 1744.516605 139.074601 1744.516605 98.905671 Q 1744.516605 60.085697 1725.631213 34.755289 Q 1706.745820 9.424881 1667.026542 9.424881 Q 1633.902162 9.424881 1614.417233 31.832550 Q 1594.932304 54.240218 1594.932304 92.011004 Q 1594.932304 132.479702 1615.466422 156.461153 Q 1636.000539 180.442604 1670.623759 180.442604 Z M 1776.591796 175.796198 L 1802.221972 175.796198 L 1802.221972 153.013820 Q 1813.613161 167.102922 1826.353307 173.248169 Q 1839.093453 179.393416 1854.681396 179.393416 Q 1888.854964 179.393416 1900.845690 155.561849 Q 1907.440589 142.521935 1907.440589 118.240716 L 1907.440589 15.270360 L 1880.011804 15.270360 L 1880.011804 116.442107 Q 1880.011804 131.130746 1875.665166 140.123790 Q 1868.470731 155.112197 1849.585338 155.112197 Q 1839.992758 155.112197 1833.847511 153.163704 Q 1822.756090 149.866254 1814.362582 139.973906 Q 1807.617799 132.030050 1805.594364 123.561600 Q 1803.570929 115.093150 1803.570929 99.355323 L 1803.570929 15.270360 L 1776.591796 15.270360 Z" transform="scale(0.240000,0.240000) translate(292.000000,990.999998)" fill="#ffffff" opacity="1.000000"></path>
        <path d="M 9.032392 70.303119 L 52.611491 70.303119 L 52.611491 62.978900 L 16.926271 62.978900 L 16.926271 44.831115 L 49.925945 44.831115 L 49.925945 37.913797 L 16.926271 37.913797 L 16.926271 17.650126 L 53.221843 17.650126 L 53.221843 10.529358 L 9.032392 10.529358 Z M 117.250803 24.201233 Q 117.576324 20.539123 119.081858 18.585998 Q 121.848785 15.045960 128.684722 15.045960 Q 132.753732 15.045960 135.846180 16.815979 Q 138.938628 18.585998 138.938628 22.288798 Q 138.938628 25.096415 136.456531 26.561259 Q 134.869617 27.456441 130.190256 28.636454 L 124.371571 30.101298 Q 118.797027 31.484761 116.152170 33.193745 Q 111.432118 36.164123 111.432118 41.413146 Q 111.432118 47.598042 115.887685 51.422911 Q 120.343251 55.247781 127.870920 55.247781 Q 137.717925 55.247781 142.071766 49.469786 Q 144.798002 45.807677 144.716622 41.575906 L 137.799305 41.575906 Q 137.595854 44.058003 136.049630 46.092508 Q 133.526844 48.981505 127.301258 48.981505 Q 123.150868 48.981505 121.014637 47.394591 Q 118.878407 45.807677 118.878407 43.203511 Q 118.878407 40.355203 121.686024 38.646219 Q 123.313628 37.628966 126.487456 36.855855 L 131.329579 35.675842 Q 139.223458 33.763407 141.909005 31.973042 Q 146.181466 29.165425 146.181466 23.143290 Q 146.181466 17.324605 141.766590 13.092835 Q 137.351714 8.861064 128.318511 8.861064 Q 118.593576 8.861064 114.544911 13.275940 Q 110.496246 17.690816 110.211415 24.201233 Z M 206.060035 66.274799 L 213.465634 66.274799 L 213.465634 54.108458 L 220.423642 54.108458 L 220.423642 48.127013 L 213.465634 48.127013 L 213.465634 19.684631 Q 213.465634 17.405985 215.011858 16.632874 Q 215.866350 16.185282 217.860165 16.185282 Q 218.389137 16.185282 218.999488 16.205627 Q 219.609840 16.225973 220.423642 16.307353 L 220.423642 10.529358 Q 219.162249 10.163147 217.799130 10.000387 Q 216.436012 9.837626 214.849098 9.837626 Q 209.722145 9.837626 207.891090 12.462138 Q 206.060035 15.086650 206.060035 19.277730 L 206.060035 48.127013 L 200.159971 48.127013 L 200.159971 54.108458 L 206.060035 54.108458 Z M 279.529099 19.399801 L 288.033331 19.399801 L 288.033331 10.529358 L 279.529099 10.529358 Z M 426.752058 51.789122 L 426.752058 57.404356 Q 434.686628 58.177468 437.819766 59.988178 Q 440.952903 61.798887 442.499127 68.553444 L 448.277122 68.553444 L 448.277122 10.529358 L 440.464622 10.529358 L 440.464622 51.789122 Z M 526.222097 24.608134 Q 526.547618 18.545308 530.901459 16.225973 Q 533.139415 15.005269 535.947032 15.005269 Q 541.196055 15.005269 544.898854 19.379455 Q 548.601653 23.753641 550.147877 37.140685 Q 547.706471 33.275126 544.105397 31.708557 Q 540.504323 30.141988 536.353933 30.141988 Q 527.931081 30.141988 523.027924 35.391011 Q 518.124767 40.640034 518.124767 48.900125 Q 518.124767 56.834695 522.966889 62.856830 Q 527.809011 68.878965 537.249115 68.878965 Q 549.985117 68.878965 554.827239 57.404356 Q 557.512786 51.097390 557.512786 41.616597 Q 557.512786 30.915100 554.298268 22.655009 Q 548.967864 8.901754 536.231862 8.901754 Q 527.686941 8.901754 523.251720 13.377665 Q 518.816498 17.853577 518.816498 24.608134 Z M 537.330495 36.571024 Q 541.684336 36.571024 545.285410 39.439676 Q 548.886484 42.308328 548.886484 49.469786 Q 548.886484 55.898823 545.651621 59.052306 Q 542.416758 62.205788 537.411875 62.205788 Q 532.040782 62.205788 528.887299 58.604714 Q 525.733816 55.003640 525.733816 48.981505 Q 525.733816 43.284891 528.500743 39.927957 Q 531.267670 36.571024 537.330495 36.571024 Z M 655.111081 67.821023 L 655.111081 61.432677 Q 652.303464 58.706440 647.644447 51.951883 Q 642.985430 45.197326 639.404701 37.384826 Q 635.864662 29.775777 634.033607 23.509501 Q 632.853595 19.481181 630.981850 10.529358 L 622.884519 10.529358 Q 625.651446 27.212300 635.091550 43.732482 Q 640.666094 53.416726 646.810300 60.456114 L 614.583738 60.456114 L 614.583738 67.821023 Z M 730.573959 44.383524 Q 735.416082 44.383524 738.142319 47.089415 Q 740.868555 49.795307 740.868555 53.538797 Q 740.868555 56.794005 738.264389 59.520242 Q 735.660222 62.246479 730.329819 62.246479 Q 725.040106 62.246479 722.680080 59.520242 Q 720.320054 56.794005 720.320054 53.131896 Q 720.320054 49.022195 723.371811 46.702859 Q 726.423569 44.383524 730.573959 44.383524 Z M 731.021551 15.534241 Q 736.107813 15.534241 739.464747 18.280823 Q 742.821680 21.027405 742.821680 26.479878 Q 742.821680 32.135803 739.363022 35.065490 Q 735.904363 37.995177 730.492579 37.995177 Q 725.243556 37.995177 721.927313 35.004455 Q 718.611069 32.013732 718.611069 26.724019 Q 718.611069 22.166727 721.642482 18.850484 Q 724.673895 15.534241 731.021551 15.534241 Z M 720.604884 41.575906 Q 717.553127 42.877990 715.844142 44.627664 Q 712.629624 47.882872 712.629624 53.091205 Q 712.629624 59.601622 717.349676 64.280984 Q 722.069728 68.960345 730.736720 68.960345 Q 739.118881 68.960345 743.879623 64.545469 Q 748.640365 60.130593 748.640365 54.230528 Q 748.640365 48.778055 745.873438 45.400776 Q 744.327214 43.488341 741.072006 41.657287 Q 744.693425 39.988992 746.768620 37.832417 Q 750.634180 33.763407 750.634180 27.252990 Q 750.634180 19.562561 745.466537 14.211812 Q 740.298894 8.861064 730.858790 8.861064 Q 722.354559 8.861064 716.474839 13.479391 Q 710.595119 18.097717 710.595119 26.886779 Q 710.595119 32.054422 713.117905 35.818257 Q 715.640692 39.582091 720.604884 41.575906 Z" transform="scale(0.240000,0.240000) translate(865.999999,849.999999)" fill="#ffffff" opacity="1.000000"></path>
        <path d="M 482.907573 61.326384 L 483.403308 60.334932 L 482.411847 60.334932 L 479.437444 58.847717 L 475.967305 57.856266 L 475.471570 60.334933 L 480.428905 61.326384 L 481.420376 60.334932 L 480.924641 61.326384 Z M 393.675545 119.327220 L 395.162741 118.087886 L 395.379632 117.824528 L 395.534552 117.282320 L 395.658486 115.361356 L 394.667014 109.908276 L 393.179817 104.455215 L 391.692620 103.959470 L 390.205413 102.348342 L 388.718207 101.480803 L 387.602807 100.117550 L 387.231010 97.019213 L 385.743813 97.019213 L 384.752342 95.036272 L 384.256616 96.027743 L 379.299281 97.514940 L 378.989442 96.337574 L 378.059947 95.779880 L 374.837671 95.036273 L 371.987207 95.593970 L 368.393139 97.267078 L 365.294800 99.188052 L 363.931530 100.489354 L 362.940060 103.463748 L 360.461392 105.446690 L 359.593870 107.181747 L 358.974196 110.404025 L 358.478471 116.848557 L 358.850268 119.575092 L 359.965668 120.814421 L 359.469943 122.301618 L 360.461395 122.301618 L 360.833201 124.036694 L 361.948611 125.276030 L 364.427279 127.754697 L 366.905946 128.250423 L 366.905947 129.241894 L 371.863282 131.472698 L 375.085541 132.402193 L 378.803540 132.712031 L 378.803540 131.720560 L 383.265150 130.481225 L 385.743812 129.179928 L 389.213955 125.771752 L 390.205407 125.771752 L 391.196877 122.797359 L 393.179819 122.301614 Z M 433.829987 235.328845 L 436.804376 234.585255 L 440.770245 234.337392 L 448.701985 243.260590 L 450.684917 242.764845 L 451.676388 244.252061 L 456.633723 244.252060 L 460.227793 244.747788 L 462.086794 246.234982 L 462.830392 248.279884 L 463.078256 250.448719 L 463.326126 252.555587 L 464.069728 254.414592 L 466.052658 255.715889 L 470.018534 256.149651 L 470.018534 254.662454 L 471.505731 254.662454 L 472.001466 250.696590 L 474.232261 249.952982 L 475.781429 249.395282 L 477.950262 249.209383 L 477.950262 250.200854 L 479.437469 250.944452 L 481.420401 251.688050 L 484.890539 250.696588 L 486.501671 250.820519 L 487.369207 251.192314 L 486.873472 252.183785 L 488.360669 252.183784 L 490.095741 254.166722 L 491.335072 255.158187 L 495.300937 256.149648 L 496.292405 255.096219 L 498.275340 253.918852 L 500.382210 252.121818 L 501.745477 249.209380 L 503.232674 249.209380 L 503.728409 247.722183 L 506.950675 247.474310 L 510.668677 247.226446 L 513.643080 247.722181 L 514.820445 250.014952 L 516.369611 250.944447 L 520.583348 252.183780 L 520.583348 251.192309 L 522.070554 251.688045 L 522.566280 250.200848 L 523.557751 250.200848 L 524.301352 249.085445 L 524.549217 247.722180 L 524.797083 246.234975 L 525.540683 244.747777 L 526.036418 245.243503 L 526.841984 243.833760 L 528.267212 242.578940 L 532.976685 240.534049 L 538.677622 239.108803 L 543.882826 238.303243 L 543.882826 236.816046 L 545.370023 236.816046 L 545.370023 235.328830 L 546.609359 234.647204 L 547.352959 233.593770 L 548.840161 231.362965 L 550.327358 231.362965 L 551.814559 229.875768 L 554.293226 229.380042 L 557.763367 228.078735 L 558.754830 227.567509 L 559.250561 227.149237 L 559.529413 226.421127 L 559.870229 224.980407 L 560.737762 219.961097 L 561.729228 215.499488 L 562.844630 215.003762 L 563.216429 214.508036 L 563.216429 214.012291 L 563.239666 214.008418 L 563.309378 213.996799 L 563.588227 213.950325 L 564.703630 213.764428 L 568.173764 213.020819 L 571.891765 211.285759 L 573.317001 209.860526 L 574.122565 208.063483 L 574.618300 203.601893 L 575.609766 203.601893 L 575.114032 200.627481 L 574.866165 198.644558 L 574.618299 197.157361 L 573.626831 197.157361 L 575.361896 188.977751 L 576.663194 185.321710 L 579.079897 182.781081 L 582.797898 181.046021 L 583.975266 179.868648 L 585.028700 176.832275 L 584.037233 176.832275 L 584.532966 175.345078 L 582.054299 173.362137 L 582.054299 172.370685 L 580.071364 172.370685 L 578.336291 170.790525 L 577.096957 169.024479 L 576.353359 167.072535 L 576.105494 164.934683 L 577.592696 164.934683 L 578.088428 163.447467 L 580.133332 162.703875 L 581.310697 161.464544 L 583.541496 157.498679 L 582.550030 157.498679 L 582.054296 154.772130 L 580.567095 152.045600 L 579.079893 151.549874 L 578.026460 149.504969 L 576.849093 148.327599 L 575.919591 146.902373 L 575.609758 144.113872 L 574.618292 144.113872 L 576.105491 142.626675 L 575.609758 142.130930 L 575.237957 141.883065 L 575.114025 141.139460 L 577.592692 137.669340 L 579.327759 134.942790 L 580.071359 132.712004 L 578.832025 130.729063 L 578.150393 129.861526 L 576.601222 129.241866 L 576.601222 129.737592 L 575.609756 129.737593 L 575.114023 129.241867 L 574.122555 129.737593 L 572.511419 129.303833 L 571.643887 128.994004 L 570.156688 128.746122 L 570.156688 129.241867 L 569.660955 127.754671 L 568.173753 127.258926 L 567.739986 125.647798 L 567.430152 124.780258 L 567.120319 123.788802 L 566.686551 121.805865 L 565.695085 121.310120 L 566.190818 120.318668 L 566.686551 120.318668 L 568.173751 109.908253 L 565.447215 107.677449 L 564.145917 106.995824 L 561.729213 106.438116 L 561.729213 105.942390 L 556.276147 106.933861 L 556.276147 105.942390 L 554.355179 105.012893 L 552.558146 103.215860 L 549.088006 98.258526 L 544.874273 93.053328 L 541.899874 91.070389 L 537.934001 90.078917 L 535.207470 90.822525 L 532.480935 91.566114 L 532.480935 90.574662 L 530.993733 90.078918 L 530.993733 89.087447 L 527.027864 88.095995 L 524.580174 86.453875 L 522.690192 84.501921 L 521.357911 82.240132 L 520.583326 79.668504 L 517.113197 79.172778 L 516.617461 78.677053 L 516.369596 78.181327 L 515.625990 77.685601 L 515.130255 78.677053 L 513.890921 78.924935 L 512.155861 79.172779 L 512.155862 81.155721 L 510.668655 80.659995 L 509.243424 81.775378 L 507.942125 82.147173 L 504.224123 82.147174 L 504.224123 81.651448 L 502.427086 80.474089 L 501.001857 78.924936 L 497.779581 75.702661 L 497.779581 75.206936 L 496.292385 74.339382 L 493.813716 73.719720 L 492.884216 74.773162 L 492.078647 74.959054 L 491.397014 75.021016 L 490.839313 75.702662 L 490.343578 78.677056 L 488.608519 79.420664 L 488.050814 79.854420 L 487.864911 80.659998 L 487.245249 82.457028 L 485.386244 82.890784 L 482.659715 83.076691 L 479.437447 84.130118 L 479.437447 83.138667 L 477.206642 81.899333 L 475.471573 80.659999 L 475.967308 79.668510 L 475.099778 78.924921 L 474.480111 78.677058 L 473.860443 78.429195 L 472.992905 77.685606 L 470.080471 78.305269 L 468.283442 80.164274 L 464.069706 87.600278 L 458.616635 86.608789 L 458.616635 85.617337 L 456.137967 85.121611 L 453.442410 85.462424 L 451.304561 86.484868 L 449.724415 88.188948 L 448.701965 90.574673 L 449.693436 92.557596 L 449.507537 92.960385 L 448.949838 93.673000 L 446.719033 96.027734 L 445.231837 96.027735 L 445.231837 97.019205 L 443.744640 97.019206 L 442.753169 98.506403 L 434.325695 96.523462 L 434.325695 97.514933 L 430.855557 98.010678 L 428.872635 107.429604 L 425.898223 109.908272 L 423.915300 109.412546 L 423.419556 110.404017 L 421.932359 110.404017 L 422.304164 110.605406 L 422.397115 110.671244 L 422.420353 110.695450 L 422.428099 110.713846 L 422.397115 110.733210 L 422.304164 110.729337 L 421.932359 110.651880 L 419.949417 110.651880 L 418.895990 111.271540 L 417.718632 112.634803 L 416.789129 115.051508 L 416.479298 118.831472 L 416.727162 120.318688 L 416.975025 121.310140 L 416.045522 121.558005 L 415.239965 122.301611 L 414.558325 123.045216 L 414.000631 123.293082 L 410.034748 122.797356 L 409.539022 123.788808 L 407.927887 126.391417 L 407.060355 129.241889 L 410.778357 133.207752 L 411.707860 135.562484 L 412.017692 139.652284 L 413.009163 139.652284 L 411.459991 143.494222 L 409.786888 146.096816 L 406.564632 149.319092 L 403.838083 151.797760 L 402.660724 153.594790 L 401.607297 156.507232 L 402.598749 157.002958 L 402.103024 159.977371 L 402.226955 160.658994 L 402.598750 160.720959 L 402.815641 160.736451 L 402.970561 161.030793 L 403.094495 162.456038 L 404.581692 162.456038 L 403.590222 170.387766 L 402.598751 170.387767 L 402.103025 171.874963 L 400.615829 174.849376 L 403.342360 178.567377 L 404.643658 181.231942 L 405.077421 183.772575 L 404.767590 185.569607 L 403.838087 186.994831 L 401.607302 190.712833 L 400.120086 190.712833 L 401.235489 194.059045 L 402.598755 196.165913 L 405.573151 197.281312 L 411.521973 197.653108 L 411.026229 198.644579 L 414.496367 200.379639 L 416.975035 203.601914 L 419.453704 207.567778 L 419.453704 210.542171 L 420.445175 210.542171 L 419.949430 212.029387 L 421.436646 213.020838 L 420.940902 215.499506 L 422.428098 216.490977 L 422.428099 217.978173 L 423.419570 217.978173 L 424.906776 221.572252 L 425.650379 222.346832 L 426.393983 222.439782 L 427.881179 222.811581 L 429.368377 224.918449 L 428.376906 224.918449 L 427.881180 227.644980 L 427.385436 230.371510 L 426.393984 230.371511 L 425.402513 231.858726 L 425.650376 235.576728 L 426.455936 236.630155 L 428.376907 237.311787 L 430.359849 237.311787 L 430.607712 236.568179 L 430.855575 235.824590 L 433.334243 236.320316 Z M 457.129468 315.141948 L 457.377331 316.629145 L 457.625204 318.116341 L 459.112401 318.116341 L 459.608130 320.099278 L 461.095333 322.082215 L 462.086804 322.577950 L 462.086804 321.090744 L 460.351732 318.859949 L 459.112400 315.141948 Z M 228.100603 478.734031 L 226.861264 477.246830 L 224.134719 476.751099 L 222.647542 478.734032 L 221.656052 482.204166 L 222.647542 482.699901 L 223.267200 482.947765 L 224.134720 483.691367 L 227.109114 484.187102 L 228.720256 483.195635 L 229.587781 481.212698 L 229.215987 480.097298 L 228.100603 478.734031 Z M 298.990445 100.985089 L 300.849446 100.551326 L 302.460583 99.250029 L 303.699915 97.329053 L 304.443506 95.036282 L 300.973376 91.132382 L 299.238313 89.970512 L 297.503247 89.335359 L 295.985053 88.762164 L 294.900636 87.786190 L 294.249989 86.407428 L 294.033108 84.625868 L 294.280970 83.138691 L 294.528833 81.651475 L 295.520304 81.651475 L 296.016030 80.164297 L 297.007501 80.164297 L 296.325863 77.561679 L 296.263911 74.711198 L 295.954077 71.984668 L 294.528832 69.753863 L 295.024576 68.266685 L 294.033106 67.770959 L 292.545909 67.275196 L 292.545908 66.283744 L 290.562967 66.283744 L 290.284121 66.144318 L 289.943307 65.726043 L 289.075770 64.052959 L 288.208232 62.255910 L 287.588573 61.326410 L 288.084298 58.847742 L 286.968898 57.484463 L 286.597101 56.369075 L 284.614178 55.873349 L 284.614178 54.881859 L 283.126962 54.386133 L 282.631236 53.394682 L 281.639746 52.898956 L 282.631235 47.445857 L 283.870555 46.330468 L 284.614177 43.975737 L 283.126961 42.488522 L 282.259435 41.868864 L 280.648293 41.001344 L 279.687801 42.085767 L 278.293552 42.860350 L 274.203742 43.480012 L 271.787064 42.550512 L 269.494288 39.762012 L 267.697253 35.858104 L 266.767738 31.582402 L 262.801892 30.095187 L 262.306166 31.086676 L 258.340283 31.086677 L 258.340283 32.078129 L 256.853067 32.078129 L 255.737684 33.193546 L 255.458838 33.472396 L 255.389126 33.542108 L 255.365889 33.565345 L 252.825251 33.317477 L 251.152162 32.573856 L 250.222652 30.838805 L 249.912827 27.616521 L 250.904279 27.616521 L 251.400005 24.642127 L 252.887221 25.137853 L 253.382946 22.163459 L 251.895730 21.667733 L 251.400005 23.154949 L 249.912827 23.154949 L 248.425611 26.129343 L 247.434159 25.633617 L 246.380713 23.588705 L 245.203335 22.411342 L 244.025977 21.357910 L 242.972549 19.684793 L 237.519488 21.419853 L 235.288665 22.907069 L 233.553605 24.146403 L 231.942472 24.518198 L 229.091996 24.642130 L 229.091996 23.650678 L 224.630386 22.659189 L 223.143208 17.206128 L 221.779937 15.471054 L 218.681598 14.231735 L 216.202930 16.710403 L 215.707205 18.693345 L 212.732811 20.180523 L 212.732812 23.154954 L 211.307571 23.960518 L 209.014810 24.394288 L 203.809593 24.642133 L 200.339473 23.402800 L 198.604376 21.915622 L 196.621472 20.428407 L 192.903470 19.189074 L 191.664136 21.667741 L 190.920529 25.137861 L 191.911981 25.633624 L 190.300867 28.050317 L 188.441862 29.351626 L 183.980253 31.086686 L 182.555012 29.041775 L 181.253703 27.864411 L 177.039975 26.129352 L 177.039975 26.625078 L 175.119013 27.306711 L 174.313464 28.360138 L 173.569856 32.573866 L 174.065582 33.069629 L 173.631821 36.818622 L 172.330528 39.638098 L 170.161694 41.528066 L 167.125307 42.488537 L 158.202125 40.505634 L 157.334572 41.682993 L 156.714910 42.240694 L 156.467047 42.535035 L 156.219184 43.170194 L 155.723458 45.462969 L 155.227695 45.462970 L 155.475577 46.950147 L 155.723459 48.437363 L 156.714911 48.437363 L 156.219185 50.420305 L 155.723459 52.651090 L 154.855906 53.766493 L 153.244792 54.634032 L 150.518257 55.191734 L 146.304515 55.377641 L 145.808789 56.864819 L 144.569455 57.608427 L 144.011740 58.042197 L 143.825848 58.847761 L 144.135672 60.520864 L 145.065182 62.565762 L 145.994678 64.982473 L 146.304517 67.770979 L 145.808786 69.629970 L 144.321575 70.249646 L 144.321575 72.232550 L 142.834360 71.736824 L 140.479629 75.454840 L 139.364241 78.677102 L 138.372789 78.181376 L 138.124907 80.164317 L 137.877026 82.147221 L 138.124894 84.316065 L 138.868516 85.865222 L 140.851458 88.096046 L 139.302282 92.123881 L 138.109421 93.440671 L 136.637693 94.292715 L 135.196970 95.082782 L 134.097070 96.213670 L 132.919693 99.497914 L 133.911182 99.497913 L 133.415457 101.976581 L 136.389851 103.959503 L 136.389851 105.446719 L 138.372793 105.942445 L 139.859971 107.925386 L 139.364245 109.412583 L 140.107853 109.660446 L 140.851461 109.908309 L 140.851461 111.891250 L 141.966845 113.254518 L 142.338639 115.361388 L 142.090796 118.831508 L 141.842914 121.805920 L 140.355699 122.797391 L 139.859973 123.788843 L 139.364247 124.780314 L 139.767027 128.901116 L 140.975372 132.340265 L 142.989292 135.097772 L 145.808800 137.173651 L 148.783195 147.088321 L 151.757589 154.028597 L 153.120869 156.383331 L 154.236257 157.498735 L 153.740531 158.490187 L 161.672260 158.490186 L 161.672260 159.481657 L 166.629596 162.951795 L 166.629596 164.934736 L 167.621048 164.934736 L 167.125323 170.883523 L 167.992877 171.131388 L 168.612539 171.874994 L 170.099717 173.362190 L 171.896771 172.928428 L 174.313482 171.627130 L 177.349837 170.325833 L 181.005877 169.892069 L 180.510151 169.892070 L 185.963213 170.635658 L 187.481395 171.301801 L 188.565807 172.556621 L 189.216452 174.400127 L 189.433333 176.832326 L 187.946155 178.815268 L 189.433333 178.815268 L 190.114980 178.443457 L 190.188564 178.389235 L 190.223418 178.350506 L 190.219543 178.327269 L 190.176941 178.319523 L 190.134339 178.319523 L 190.130464 178.319523 L 190.165318 178.319523 L 190.238902 178.319523 L 190.920549 178.319523 L 190.920549 179.806738 L 193.399217 180.798190 L 196.869337 181.293934 L 200.091612 178.815266 L 203.313887 176.832324 L 207.031889 177.575932 L 209.758400 178.815265 L 212.237068 179.806736 L 212.237068 180.798187 L 221.160287 181.789657 L 221.903876 182.285400 L 222.151739 182.781128 L 222.399607 183.152922 L 223.143229 183.276854 L 226.117623 181.789656 L 227.480902 181.541791 L 228.596290 180.798185 L 229.587742 180.302459 L 231.074958 180.302459 L 231.074958 179.310988 L 232.562173 179.310988 L 234.049351 177.823791 L 237.023745 178.319517 L 237.023745 177.328065 L 240.989628 178.319516 L 244.955512 179.310986 L 247.062366 178.815258 L 248.425631 177.328063 L 248.921357 177.328063 L 251.585931 172.370711 L 253.630847 170.387786 L 256.915055 170.015991 L 263.297636 169.892059 L 266.272029 168.404843 L 266.767755 166.917646 L 268.378898 166.669780 L 269.246423 165.926175 L 270.237912 165.926175 L 271.229364 162.456055 L 272.840511 160.101321 L 274.699521 156.011504 L 276.186698 156.011504 L 276.186698 155.020052 L 281.144033 152.231545 L 286.101368 148.823382 L 288.332179 146.670034 L 290.067244 143.928014 L 291.306572 140.597309 L 292.050173 136.677906 L 293.041644 136.677906 L 292.855744 134.942830 L 292.298035 133.703494 L 291.554446 131.720571 L 292.050172 130.729100 L 292.545917 130.729100 L 293.289506 129.861563 L 293.537369 129.241903 L 294.033113 128.250432 L 295.520310 127.258961 L 296.016036 125.276039 L 297.007507 125.276039 L 297.503251 123.788823 L 297.503251 120.814429 L 298.494702 116.848565 L 299.486173 117.344291 L 299.362242 116.662653 L 298.990447 116.600702 L 298.618636 116.538734 L 298.494702 115.857094 L 298.990447 111.395485 L 297.751112 108.916818 L 297.007504 105.446698 L 297.007504 104.455227 L 297.255367 103.463757 L 297.503249 102.472286 L 298.494700 102.472286 Z M 546.361526 481.708393 L 548.840193 483.195594 L 548.840194 484.187060 L 551.566724 484.682790 L 554.293260 485.178525 L 554.293260 486.169996 L 556.771928 487.161457 L 556.771928 488.152928 L 564.207931 489.144388 L 565.199399 486.665721 L 559.746330 481.708391 L 553.301793 480.716926 L 553.301793 479.725455 L 548.344457 478.238259 L 547.662822 478.610057 L 547.589238 478.664278 L 547.554382 478.703007 L 547.558256 478.726244 L 547.600859 478.733990 L 547.643460 478.733990 L 547.647333 478.733990 L 547.612477 478.733990 L 547.538892 478.733990 L 546.857256 478.733990 Z M 529.010839 385.536094 L 528.515104 387.519027 L 531.117706 390.927193 L 532.976705 395.202896 L 534.835706 399.354667 L 537.438311 402.391031 L 537.438311 400.903831 L 535.269474 397.805500 L 533.720308 393.467829 L 532.171141 389.254090 L 530.002306 386.527560 L 530.002306 386.031827 Z M 336.170452 41.992789 L 336.170452 41.001337 L 333.196040 40.505611 L 332.824243 42.364588 L 331.708843 43.975731 L 332.700314 43.975731 L 333.381954 44.285569 L 333.455540 44.304937 L 333.490396 44.301067 L 333.486523 44.273959 L 333.443922 44.223613 L 333.401314 44.173265 L 333.397437 44.146152 L 333.432290 44.142277 L 333.505874 44.161637 L 334.187511 44.471457 L 334.435374 43.727849 L 334.683256 42.984279 L 334.435374 42.240671 L 334.187511 41.497063 Z M 701.030358 296.304037 L 701.030358 297.295508 L 701.278227 297.915175 L 702.021829 298.782705 L 703.013300 297.295508 Z M 297.503259 185.259786 L 297.007514 184.764060 L 297.069480 184.392249 L 297.255377 184.268315 L 297.363828 184.206349 L 297.441291 184.020449 L 297.503259 183.276844 L 297.131448 183.214878 L 297.007514 183.028981 L 296.883583 182.843084 L 296.511788 182.781118 L 295.768181 185.011923 L 294.528847 187.242728 L 295.520318 187.738453 Z M 340.136315 24.642115 L 340.879920 24.332296 L 341.065819 24.316811 L 341.127785 24.394271 L 341.189752 24.440743 L 341.375651 24.332296 L 342.119256 23.650663 L 341.623511 23.154937 Z M 344.597923 17.206112 L 344.845786 15.409077 L 345.589375 13.983837 L 346.332980 12.682547 L 346.580845 11.257325 L 346.332980 10.389800 L 345.589374 8.778658 L 344.040214 11.567159 L 343.358589 13.983837 L 342.119256 19.684780 L 342.614982 20.180506 Z M 428.376955 599.692975 L 426.641895 602.171642 L 424.906817 604.650310 L 424.906817 609.607645 L 430.359898 613.077783 L 432.342821 613.077783 L 433.830036 612.582057 L 435.317233 610.599115 L 437.300155 608.368310 L 437.795900 606.633250 L 437.300169 604.898188 L 435.812958 602.667386 L 433.706094 600.808381 L 431.351367 600.188719 L 430.359896 600.436582 L 429.368425 600.684445 Z M 123.500814 317.620659 L 120.278539 319.603591 L 116.560538 323.569456 L 119.534932 326.048123 L 121.022148 326.543859 L 129.449602 325.056661 L 130.936804 323.941252 L 133.415486 323.569454 L 134.406937 322.082257 L 135.398389 322.577992 L 136.885605 321.586521 L 139.364272 319.107854 L 140.851474 318.364251 L 143.330156 318.116382 L 144.817333 317.124921 L 147.791741 315.885585 L 149.774668 314.150517 L 149.031060 312.415448 L 147.791726 310.184653 L 147.296000 311.176115 L 145.808822 310.184653 L 143.825881 310.680380 L 140.603605 312.663322 L 139.550173 313.406919 L 137.877056 313.654783 L 135.894152 313.159048 L 134.902662 314.646254 L 129.945327 315.141991 L 126.475208 316.629188 L 124.492266 318.116385 Z M 114.577623 525.828734 L 113.090407 526.572333 L 111.603229 527.811667 L 112.346818 528.307401 L 112.594681 528.803128 L 112.842549 529.298863 L 113.586171 529.794598 L 115.321217 528.679199 L 116.560564 527.315930 Z M 532.480979 428.169174 L 533.472445 428.664907 L 533.224577 429.408508 L 532.976710 430.152109 L 532.976710 430.647842 L 533.720312 430.647839 L 534.959647 431.639308 L 534.463912 432.630776 L 535.207515 436.844511 L 535.889145 439.261213 L 537.438316 441.058245 L 536.446850 442.049713 L 540.908450 447.007048 L 540.412715 447.502778 L 548.840190 453.451583 L 548.964122 454.566983 L 549.335920 454.938780 L 549.831656 454.443049 L 554.788992 457.417447 L 555.284722 456.921716 L 558.259125 457.913182 L 560.242058 457.417446 L 562.224994 456.425980 L 563.712194 457.913181 L 564.145962 457.541380 L 564.455794 457.417445 L 564.765627 457.293513 L 565.199395 456.921715 L 568.173796 458.904646 L 568.669529 458.408916 L 570.280666 459.152515 L 571.148197 459.400381 L 573.255067 458.842684 L 574.618333 457.169581 L 576.353395 455.496475 L 579.575668 454.938776 L 580.567134 453.947310 L 581.558600 453.699442 L 583.045801 453.451579 L 584.037269 451.964377 L 585.028736 452.460108 L 589.490336 446.015575 L 592.464738 446.015575 L 593.456205 444.032638 L 594.447671 445.024106 L 595.934872 439.571038 L 594.943404 438.083837 L 598.413538 433.622234 L 597.422071 433.126501 L 598.413538 431.391434 L 598.909271 429.656367 L 597.917804 429.160632 L 598.909271 428.169166 L 597.917804 424.699031 L 598.413537 421.724631 L 596.430603 420.237430 L 596.430602 415.775828 L 595.439135 415.280095 L 596.430602 414.288628 L 593.456200 410.322760 L 594.447667 409.827027 L 589.986065 404.869692 L 589.118533 403.382494 L 587.507397 400.903824 L 585.524462 398.673020 L 583.541527 397.929424 L 581.558593 398.920891 L 573.131123 393.963557 L 571.643922 393.963557 L 569.660988 394.211423 L 567.678055 394.955025 L 565.695120 393.963558 L 557.763382 393.963559 L 554.788984 397.433694 L 553.301779 396.690093 L 552.929979 396.504194 L 552.837030 396.457719 L 552.806047 396.442227 L 551.318850 396.937961 L 549.831648 397.433694 L 548.344447 396.442228 L 544.378577 402.019240 L 542.767448 403.413484 L 541.404180 403.878231 L 537.934042 408.835567 L 538.925513 409.827034 L 537.934043 410.818501 L 538.429778 412.305701 L 532.976708 418.254504 L 533.968179 418.750237 L 533.224576 420.361371 L 532.976709 422.220372 L 533.224576 424.203306 L 533.968180 426.186240 Z M 18.405285 334.475610 L 17.599721 334.413644 L 17.165951 334.227742 L 16.422343 333.979875 L 14.191557 334.351674 L 12.456498 335.467077 L 8.986341 338.441476 L 10.969282 339.928677 L 12.704342 339.432946 L 13.757788 339.185079 L 15.430892 338.441475 Z M 151.261882 295.808373 L 152.687108 300.393916 L 154.979884 303.244375 L 156.172744 304.452728 L 157.024778 306.094842 L 157.706397 310.680378 L 157.458553 312.167584 L 157.210671 313.654781 L 157.706397 314.150516 L 156.900848 317.062955 L 154.484160 318.859989 L 153.074399 319.804976 L 152.067440 321.400613 L 151.463272 323.646904 L 151.261886 326.543855 L 151.509730 329.270390 L 151.757612 331.005454 L 156.219222 334.971323 L 156.714953 337.326058 L 158.202164 339.432927 L 157.706401 339.928658 L 159.689343 343.398791 L 162.911619 346.621061 L 164.336855 348.665961 L 165.142405 351.330528 L 164.646679 352.321994 L 166.133895 353.809196 L 167.125347 356.783599 L 165.142406 360.253732 L 166.133896 361.245198 L 165.142406 362.236665 L 166.133896 362.732400 L 164.150955 365.706798 L 165.142407 367.194000 L 164.646681 368.185468 L 169.604017 371.655601 L 171.586959 371.159868 L 171.761238 371.198597 L 172.036214 371.314783 L 172.888254 371.779532 L 175.800686 373.638535 L 178.837070 375.745404 L 180.510178 377.108668 L 182.988846 379.587335 L 182.493083 381.570270 L 187.450419 387.519071 L 186.954693 388.510539 L 190.982542 391.422970 L 192.299329 393.204510 L 193.151363 395.202940 L 194.700535 399.354708 L 196.869365 403.382543 L 199.348033 404.374009 L 201.826701 403.382542 L 203.871613 402.700909 L 205.048976 401.647474 L 206.102408 400.717972 L 207.775525 400.408140 L 209.386640 400.779938 L 211.245645 401.895340 L 210.749919 402.886807 L 210.858357 403.212132 L 211.183675 403.692373 L 212.484979 405.117608 L 215.211529 407.844142 L 214.715766 408.835609 L 215.025604 409.579210 L 215.955100 409.827076 L 219.673101 410.818542 L 220.168865 409.827075 L 226.613378 409.331341 L 233.057930 415.775876 L 233.057930 417.263076 L 235.784461 418.750279 L 239.006718 419.246010 L 242.228993 418.874211 L 244.955543 417.758809 L 247.434196 416.643406 L 249.912878 416.271607 L 251.523992 416.643405 L 252.391546 417.758808 L 252.887272 418.874210 L 253.382998 419.246008 L 257.348881 420.733208 L 258.836059 418.254540 L 259.827549 418.750273 L 261.810453 419.246007 L 263.793395 420.237474 L 264.289120 419.246006 L 267.263552 420.733206 L 267.759278 423.707607 L 266.272063 429.656411 L 265.404543 430.400011 L 264.784886 430.647877 L 264.289122 433.126544 L 263.297670 433.126545 L 263.293797 433.140100 L 263.282179 433.180765 L 263.235705 433.343427 L 263.049807 433.994074 L 262.306219 436.596678 L 263.049808 437.402247 L 263.235705 437.665604 L 263.297671 437.836012 L 263.421602 438.145846 L 263.793397 438.579613 L 265.280613 439.075346 L 266.396001 440.686482 L 267.759281 441.554013 L 268.750733 442.545477 L 268.750733 444.528416 L 269.742223 444.528415 L 269.742223 446.015617 L 270.733675 446.511347 L 270.733675 450.477216 L 271.725127 450.477216 L 271.229402 455.930287 L 269.649253 456.890770 L 268.378940 458.285015 L 266.767794 462.374819 L 268.750735 463.366290 L 270.237951 464.853486 L 271.229403 465.349222 L 272.220893 465.101354 L 273.708071 464.853486 L 274.823488 464.977420 L 275.195287 465.349221 L 275.195287 465.844957 L 278.169681 469.315090 L 281.144075 474.272424 L 280.152624 480.716961 L 284.614234 486.170031 L 285.109960 486.170031 L 284.614235 489.144425 L 284.614235 491.623092 L 286.101413 492.118827 L 287.216823 494.597497 L 287.588629 496.084701 L 287.092892 497.819763 L 285.605688 500.050565 L 286.101414 501.042036 L 283.622747 504.512165 L 285.109963 509.469500 L 286.597161 514.426835 L 285.605690 515.418306 L 287.588632 521.367102 L 287.092888 523.845770 L 288.084359 524.837241 L 289.509593 527.687707 L 291.802361 530.290311 L 297.007560 535.743380 L 297.503306 542.931511 L 298.742640 545.905913 L 300.725563 547.145247 L 303.452094 549.128179 L 304.443565 547.145246 L 305.311102 547.888848 L 305.930761 548.136717 L 307.417977 548.632443 L 307.913703 547.640981 L 309.896645 551.111110 L 309.400900 552.102581 L 311.461299 555.836085 L 313.676606 558.609093 L 316.046832 560.421613 L 318.571983 561.273651 L 323.715209 562.327080 L 328.734517 564.000181 L 327.743047 564.991642 L 333.196108 567.470309 L 333.691853 566.974583 L 334.683324 567.222446 L 336.170521 567.470309 L 338.153443 565.487386 L 339.144914 565.983111 L 342.615053 565.983111 L 344.597995 566.974582 L 346.580917 565.983110 L 348.315996 566.478855 L 350.051056 567.470307 L 350.546782 566.974581 L 350.546782 567.966052 L 354.512666 570.196856 L 358.478530 571.436189 L 359.470001 570.940444 L 363.931591 564.000176 L 364.923062 564.495911 L 366.410258 562.512979 L 367.401729 563.504440 L 368.207300 563.442474 L 368.641063 563.256577 L 369.384671 563.008714 L 371.243669 563.318545 L 371.863339 564.248047 L 372.359067 565.177550 L 373.846261 565.487381 L 376.324929 564.991650 L 378.803597 563.504439 L 380.290793 564.495909 L 382.149796 563.256576 L 384.752403 562.512977 L 387.231070 559.538573 L 388.222541 560.034309 L 392.188405 557.059905 L 392.684131 557.555640 L 394.667070 556.068439 L 395.658543 554.581237 L 396.897872 553.465837 L 399.624407 553.094040 L 400.120133 552.102569 L 403.094546 554.085501 L 405.139449 552.660270 L 406.316802 551.358970 L 407.060410 548.632430 L 407.308272 544.914428 L 407.865975 542.497730 L 409.043350 539.709230 L 416.479353 539.213494 L 418.958020 535.743365 L 417.470804 533.264697 L 418.462275 532.273226 L 416.975078 531.281756 L 417.594740 527.687689 L 419.453745 523.845753 L 421.932413 524.341488 L 422.923883 522.854291 L 426.394022 521.614957 L 427.509417 520.809389 L 428.872689 518.888416 L 427.881218 517.649083 L 427.385473 516.905484 L 427.881218 515.914023 L 426.394021 514.922552 L 426.332052 513.311417 L 426.146138 512.443885 L 425.402549 511.948150 L 424.411079 511.948150 L 424.039284 511.576353 L 423.915352 510.460953 L 422.923882 509.965218 L 428.872687 501.042018 L 429.864139 501.537743 L 430.359883 498.563350 L 429.926118 495.341076 L 428.624804 493.606015 L 427.865712 492.831430 L 427.323506 491.499149 L 426.889743 487.161474 L 425.898272 486.170013 L 431.351352 480.716942 L 431.847078 481.212672 L 433.830019 478.734004 L 435.317216 479.229740 L 436.308686 477.494670 L 436.804412 475.759606 L 437.300138 476.255336 L 439.778805 472.785202 L 440.274550 473.280938 L 442.753217 468.819333 L 443.868617 466.712468 L 444.240414 464.357733 L 443.744687 460.887600 L 442.753216 459.400398 L 444.240413 457.913197 L 442.009610 455.558463 L 440.274548 452.460127 L 437.795879 447.502792 L 436.804408 446.015595 L 437.300134 445.024127 L 437.733911 444.652326 L 438.043742 444.528394 L 438.353573 444.404460 L 438.787350 444.032658 L 439.778801 440.066791 L 440.956176 440.004825 L 441.513880 439.818923 L 441.947642 439.385158 L 442.753214 438.579589 L 442.691248 438.207789 L 442.505351 438.083856 L 442.319437 437.959924 L 442.257469 437.588123 L 443.434838 436.844527 L 444.984008 434.613722 L 447.710548 430.152120 L 447.214812 427.673453 L 442.753212 423.211851 L 443.248937 421.724651 L 441.761740 420.733184 L 441.761740 419.741716 L 436.556542 418.750250 L 434.511641 417.758788 L 431.847069 414.784383 L 430.359872 414.784383 L 429.554310 412.491617 L 427.137596 409.579182 L 424.720898 405.923149 L 423.915338 401.399579 L 422.923867 400.903846 L 422.923867 399.416645 L 421.932396 399.416646 L 423.915337 394.707177 L 425.030737 392.042609 L 425.402534 389.501975 L 424.720894 388.758373 L 424.612452 388.572474 L 424.658926 388.510508 L 424.736383 388.417558 L 424.720891 388.138710 L 424.411062 387.023308 L 418.958001 386.031841 L 417.842591 384.048910 L 417.470785 381.074506 L 417.966529 378.100105 L 418.957999 374.134236 L 417.780624 373.700469 L 417.222921 373.390636 L 417.021532 373.220228 L 416.665226 372.956871 L 415.487861 372.151302 L 413.380988 373.266706 L 411.026251 373.638504 L 407.308250 372.647039 L 406.130882 371.655574 L 405.077445 369.672636 L 404.581719 369.176903 L 403.342385 366.450370 L 402.412891 365.644803 L 400.120109 364.715302 L 400.615853 363.228100 L 399.438485 362.794335 L 398.880775 362.484502 L 398.648403 362.314093 L 398.199149 362.050736 L 396.649989 361.245168 L 397.145714 355.792098 L 398.632911 355.296367 L 399.624381 349.843296 L 397.393576 348.851831 L 394.171319 348.356096 L 392.931986 349.595430 L 391.692652 350.339033 L 391.196907 353.313431 L 391.041993 353.592283 L 390.577245 353.933099 L 388.718240 354.800633 L 386.239572 355.296369 L 386.239573 356.287835 L 382.459605 354.986536 L 379.051432 353.065570 L 376.139004 350.772800 L 373.846233 348.356098 L 373.846233 345.877431 L 372.854762 345.381700 L 371.863310 343.398763 L 370.376094 342.407298 L 363.931562 343.894500 L 362.940091 345.381701 L 360.461424 344.885966 L 360.461424 345.877432 L 360.058646 345.815467 L 359.346036 345.629568 L 356.991304 344.885967 L 356.495559 344.390236 L 357.982756 342.407299 L 356.991304 341.911569 L 358.478500 338.937165 L 357.487029 336.954233 L 357.487029 335.467032 L 360.151600 332.554590 L 362.196501 331.749030 L 363.993528 331.563132 L 365.914502 330.509696 L 367.401699 331.501162 L 368.888902 328.402825 L 369.384640 326.048091 L 368.950868 323.817292 L 367.649561 322.082227 L 366.100398 320.223229 L 364.923029 317.620628 L 365.418755 316.133421 L 365.790561 315.018022 L 366.905971 313.654754 L 368.021370 311.919688 L 368.393167 309.688889 L 367.897422 306.218751 L 367.897421 305.723015 L 367.587590 304.855486 L 366.658087 304.235819 L 365.728592 303.616152 L 365.418753 302.748622 L 366.410224 301.757151 L 365.418753 301.261416 L 367.401694 297.295551 L 366.410224 296.799816 L 369.880361 291.842481 L 366.224321 289.053981 L 364.179418 286.637283 L 363.249922 284.592378 L 362.940083 282.919282 L 363.187965 280.936340 L 363.435828 278.953408 L 362.444361 276.226880 L 359.469962 273.004612 L 358.974217 273.500338 L 356.991295 272.508877 L 354.543601 272.307487 L 352.653614 271.703314 L 351.321330 270.696356 L 350.546743 269.286612 L 349.803154 265.878443 L 349.555290 262.098473 L 349.803153 256.893275 L 350.051015 253.175273 L 349.555284 250.820540 L 348.068073 247.722203 L 349.059543 246.730742 L 347.572346 245.739271 L 347.572346 242.764859 L 341.623539 238.798995 L 340.012409 238.427198 L 337.161949 237.311799 L 332.204613 235.328858 L 329.230201 236.320329 L 326.379738 235.824601 L 323.777139 234.337407 L 324.520744 232.354465 L 324.768609 230.371524 L 324.489760 228.450560 L 323.653209 226.653532 L 322.258956 224.980435 L 320.306999 223.431267 L 317.332606 223.926993 L 315.210234 223.663638 L 313.304761 222.873569 L 311.616175 221.556780 L 310.144465 219.713267 L 307.232027 215.809361 L 303.947795 212.525128 L 301.562077 214.260202 L 298.866533 215.499534 L 295.861154 216.243129 L 292.545928 216.490993 L 293.041654 215.499523 L 291.430518 214.074292 L 290.562986 212.772992 L 289.571515 210.294325 L 288.332181 207.567795 L 287.154819 205.956664 L 285.109923 204.097657 L 282.135530 207.567795 L 281.144040 207.072070 L 279.656863 209.054993 L 280.152589 210.046463 L 277.426058 211.843503 L 275.195254 212.277268 L 273.460180 212.339234 L 272.220860 213.020858 L 270.733644 212.029406 L 270.237919 213.020858 L 266.272035 211.037936 L 265.776309 211.533662 L 254.374422 205.089132 L 254.870185 203.106190 L 254.374421 202.114738 L 254.126558 201.742927 L 253.382969 201.618993 L 251.647896 201.866859 L 250.408576 202.610464 L 249.417086 201.618994 L 246.938419 203.601936 L 246.442693 203.106191 L 245.389266 203.787828 L 244.211907 205.832741 L 242.476848 209.550742 L 240.493906 209.550742 L 239.998180 210.542194 L 233.119869 211.223833 L 230.842598 212.075880 L 229.339902 213.268745 L 227.171059 215.313648 L 225.126175 215.995276 L 224.134685 215.499532 L 222.647508 216.986747 L 218.185898 217.482474 L 216.202956 215.995277 L 214.715741 216.491004 L 212.732837 215.003807 L 211.741347 215.995278 L 209.014817 217.296578 L 206.784012 219.217535 L 202.322403 224.422753 L 203.313893 224.918479 L 201.640790 228.698451 L 199.595893 231.115148 L 197.427049 232.416445 L 195.382165 232.850208 L 193.461185 232.602345 L 191.664164 231.858757 L 189.867114 231.115152 L 187.946162 230.867286 L 185.467494 231.363013 L 184.971731 231.363013 L 184.104210 231.672845 L 183.484553 232.602344 L 182.988827 236.320348 L 183.236672 240.534094 L 183.980281 245.243547 L 181.501613 248.279925 L 180.634078 249.100983 L 180.014398 249.457294 L 178.403284 249.767124 L 175.552826 250.200893 L 174.065610 249.705158 L 173.074159 250.696629 L 171.958742 251.068426 L 170.595491 252.183826 L 170.099727 251.192355 L 167.621060 254.662494 L 168.116824 256.149690 L 167.868942 257.389024 L 167.621061 259.124093 L 169.604003 260.611299 L 169.108272 264.267333 L 167.621062 267.303694 L 166.319774 268.496558 L 164.398815 269.348602 L 158.697881 270.030236 L 155.723488 273.500365 L 155.227725 276.474768 L 155.227725 277.838039 L 155.227725 277.985210 L 155.227725 278.029748 L 155.227725 278.054922 L 155.227725 278.047177 L 155.227725 277.961974 L 158.697883 280.936367 L 158.202157 281.927838 L 159.689335 284.406505 L 160.185061 286.389437 L 159.813267 287.752705 L 158.697884 289.859576 L 156.591011 291.718578 L 153.244823 292.338244 Z M 292.050238 638.855947 L 292.112204 641.892318 L 292.189662 642.713371 L 292.240009 642.949616 L 292.298102 643.069674 L 292.437536 643.333040 L 292.607947 643.875250 L 293.041710 645.796224 L 293.537436 645.300479 L 295.148578 646.044084 L 296.016104 646.291949 L 297.751175 645.424422 L 299.981987 642.821810 L 298.742650 641.086751 L 297.007574 639.847417 L 297.503318 639.351672 L 296.387916 638.608084 L 295.024651 638.360221 L 293.041709 639.351673 Z M 469.522820 416.767312 L 463.821887 426.434117 L 461.405178 431.329487 L 460.599613 435.605186 L 462.086819 436.596652 L 462.086820 442.049723 L 463.574017 445.519856 L 463.078282 446.511322 L 466.548421 449.981456 L 466.052685 450.477191 L 469.398888 453.451595 L 472.497228 455.434525 L 475.347694 456.611894 L 477.950289 457.169594 L 482.411899 457.417456 L 484.146962 457.665323 L 485.386292 458.408927 L 488.360696 460.391858 L 488.856431 459.400392 L 490.343628 460.391858 L 492.822295 458.904656 L 493.318031 459.896122 L 500.258298 452.460119 L 501.249768 452.955854 L 504.224171 448.989985 L 504.719907 449.485720 L 506.454966 447.502783 L 508.190035 445.519850 L 508.128069 444.776249 L 508.050612 444.590350 L 507.942172 444.528384 L 507.756266 444.404451 L 507.694299 444.032649 L 508.190035 443.536916 L 508.197781 443.521424 L 508.221018 443.474950 L 508.313967 443.289050 L 508.685770 442.545450 L 507.198573 441.553982 L 508.190034 439.075314 L 507.198573 438.579581 L 509.181505 434.613714 L 508.190034 434.117979 L 508.035115 433.994047 L 508.066100 433.622248 L 508.685769 432.135047 L 507.198572 431.143578 L 506.702836 427.425577 L 505.959237 425.504611 L 503.728432 423.211843 L 504.224168 422.716110 L 503.232697 421.724643 L 503.728432 420.733176 L 492.326563 412.801441 L 491.830828 413.792908 L 490.343622 412.801441 L 488.856425 413.792909 L 487.369228 412.801441 L 486.873493 413.297175 L 484.146953 412.305708 L 481.916157 411.809975 L 479.933225 412.305709 L 479.437490 411.809976 L 477.640452 413.792912 L 476.215224 414.784377 L 474.294257 415.404044 L 471.010016 416.271578 L 470.514281 417.758779 Z M 530.498031 343.894478 L 529.506567 345.443647 L 528.515099 346.125278 L 527.027898 347.364612 L 527.027898 349.843280 L 527.027898 354.304884 L 527.275765 356.659617 L 528.019365 358.766484 L 527.523635 362.236617 L 529.506567 364.467417 L 530.374103 365.644785 L 530.993769 367.689687 L 532.480971 368.185420 L 531.985236 369.176886 L 535.951105 372.151287 L 538.429773 373.886355 L 540.412706 375.125689 L 540.412706 376.612888 L 541.404176 375.621422 L 546.361512 378.100089 L 546.857243 376.612887 L 551.318847 377.108620 L 557.763379 376.117153 L 558.259115 376.612886 L 560.737782 374.753882 L 563.216450 374.134218 L 567.182318 369.672615 L 566.686583 368.185416 L 566.841498 367.798125 L 567.306247 367.131985 L 569.165250 364.963147 L 572.635386 360.749410 L 571.643917 360.253680 L 573.131118 356.783546 L 571.643917 355.792075 L 571.643916 353.313408 L 571.086219 349.285575 L 569.413115 345.133807 L 566.004952 340.238443 L 560.242042 333.979804 L 559.746311 334.971270 L 554.293240 332.492603 L 549.831640 331.996873 L 545.493969 332.492603 L 542.395637 333.979806 L 540.908436 335.962739 L 537.438302 336.458475 L 535.703233 336.954210 L 533.968169 338.937143 L 530.498031 343.894478 Z M 363.435882 696.856762 L 362.940137 698.839685 L 363.435875 700.698690 L 364.923079 701.318352 L 366.286347 700.450827 L 368.393217 697.848232 L 365.914549 695.865291 Z" transform="scale(0.240000,0.240000) translate(1368.999998,72.000000)" fill="#ffffff" opacity="1.000000"></path>
        <path d="M 129.933676 426.080962 L 126.745916 432.456465 L 125.351277 435.644209 L 124.355106 440.425852 L 128.738263 446.004428 L 130.830232 449.989110 L 131.527552 453.973815 L 129.933676 453.973815 L 129.136734 458.755435 L 130.232519 463.138599 L 131.602257 464.433621 L 133.519898 465.130938 L 137.404977 466.724825 L 140.293880 469.912588 L 141.090814 477.881974 L 142.684690 477.881974 L 143.481632 480.272784 L 144.278573 482.663594 L 148.263267 483.460520 L 150.654077 483.062057 L 152.247960 482.663594 L 155.435712 486.648287 L 158.623464 486.648287 L 158.623464 488.242171 L 161.711602 488.939485 L 164.600504 491.031444 L 168.286343 493.521881 L 173.765295 495.414600 L 173.765295 496.211557 L 174.512427 496.037228 L 175.956876 495.514239 L 180.937756 493.422254 L 187.711726 490.931828 L 195.282646 489.039097 L 195.979970 490.931828 L 196.478051 491.828401 L 196.702195 492.201960 L 196.976143 492.924178 L 197.673456 495.414600 L 204.845916 495.414600 L 207.635189 489.836054 L 210.424478 485.054404 L 214.409171 485.054404 L 223.673598 480.472016 L 226.288541 478.330251 L 227.558656 476.288091 L 231.941828 465.130938 L 238.715810 459.552361 L 241.405477 456.563856 L 242.302025 453.973815 L 241.903560 451.084899 L 240.708156 448.793701 L 239.512740 446.502504 L 239.114273 443.613588 L 239.911215 440.425852 L 241.505083 440.425852 L 244.294371 434.448812 L 245.190927 431.360672 L 245.489776 426.080962 L 241.704320 422.693964 L 239.911215 418.908502 L 239.911215 414.923809 L 239.213891 414.326114 L 238.715810 414.126882 L 238.217715 413.927647 L 237.520390 413.329926 L 237.520390 410.142189 L 235.926521 410.142189 L 235.926521 407.751349 L 234.332638 407.751349 L 233.535696 402.969729 L 232.738770 398.188109 L 231.941828 398.188109 L 227.658280 394.502252 L 222.777036 391.414113 L 218.095013 388.126753 L 214.409171 383.843189 L 212.018361 383.843189 L 212.018361 385.437073 L 209.627536 384.640146 L 206.439784 383.843189 L 206.439784 380.655453 L 203.252033 380.655453 L 201.658159 377.666926 L 198.470397 376.670760 L 190.102547 378.264643 L 184.025884 379.460033 L 177.749989 379.858496 L 177.749989 378.264643 L 166.592850 378.264643 L 164.600504 381.053916 L 162.608157 383.843189 L 159.420405 383.843189 L 159.420405 385.437073 L 152.247960 386.234030 L 152.247960 387.827883 L 149.458672 388.624840 L 146.669383 389.421766 L 146.669383 391.015649 L 144.278573 391.015649 L 142.485455 392.908380 L 141.887756 395.398806 L 141.489287 398.088478 L 140.293880 400.578919 L 138.699997 400.578919 L 138.699997 403.766656 L 131.527552 409.743696 L 129.136732 414.226487 L 128.339800 420.502386 L 129.933676 420.502386 Z M 199.267339 617.346238 L 198.071928 619.537793 L 197.673456 622.924784 L 198.868861 631.093425 L 200.363121 634.131759 L 202.455091 636.472777 L 213.612229 646.832943 L 217.596923 646.832943 L 224.769383 648.426857 L 237.918868 647.231437 L 241.031918 646.160560 L 243.597061 644.143316 L 245.614305 641.179700 L 247.083660 637.269704 L 249.474470 637.269704 L 250.669886 634.679640 L 251.068353 633.285011 L 251.267585 632.786931 L 251.865285 632.089613 L 254.256105 630.097244 L 252.662237 626.112551 L 254.256105 626.112551 L 254.256105 622.924784 L 255.849988 622.924784 L 255.750371 621.629763 L 255.451510 620.932437 L 255.053047 619.737017 L 254.256105 618.940091 L 254.654572 617.943933 L 255.849988 616.549311 L 254.256105 616.549311 L 253.459163 610.970704 L 252.662237 606.189084 L 251.068353 606.189084 L 250.271411 602.204391 L 248.677538 600.610531 L 245.489776 599.016624 L 243.098966 598.219698 L 243.098966 596.625845 L 239.911215 596.625845 L 238.516565 594.035781 L 237.520390 592.641152 L 228.754076 592.641152 L 228.754076 591.047238 L 219.987748 591.047238 L 219.987748 592.641152 L 217.596923 592.641152 L 216.999228 593.338447 L 216.799996 593.836511 L 216.600763 594.334605 L 216.003054 595.031931 L 212.018361 595.031931 L 212.018361 596.625845 L 208.830609 596.625845 L 208.133283 597.920866 L 207.635189 598.618192 L 207.137108 599.315495 L 206.439784 600.610538 L 204.845916 600.610538 L 204.845916 603.798244 L 199.267339 607.782937 Z M 243.895908 576.702379 L 249.872948 581.085505 L 255.849988 585.468692 L 261.428550 586.265618 L 272.187225 583.476345 L 276.869239 581.185159 L 282.148959 576.702379 L 282.148959 574.311539 L 285.336710 572.717686 L 286.133652 569.529919 L 287.727535 562.357459 L 285.535948 559.070091 L 285.336710 555.583492 L 285.286908 553.616039 L 284.340548 551.299937 L 279.758149 545.621759 L 279.758149 544.027846 L 276.570397 543.230919 L 273.781109 541.637066 L 270.991820 540.043152 L 263.819375 540.043152 L 263.819375 539.246226 L 263.221674 538.648531 L 261.428550 538.449299 L 261.428550 540.043152 L 258.240798 540.043152 L 258.240798 541.637066 L 251.865295 542.433993 L 249.076010 544.426324 L 245.489776 548.809526 L 243.895908 548.809526 L 243.497430 552.794219 L 243.098966 556.778913 L 241.505083 556.778913 L 241.505083 559.966619 L 239.911215 559.966619 L 239.911215 569.529919 L 242.700503 572.219584 L 243.098966 573.913045 L 242.899725 575.208096 L 243.895908 576.702379 Z M 62.193886 197.359564 L 59.006133 196.961086 L 56.615315 196.562622 L 47.052052 196.562622 L 47.052052 194.968739 L 34.301033 196.562622 L 34.301033 198.953432 L 24.737769 200.945779 L 21.350781 203.236977 L 17.565321 209.313644 L 17.565321 211.704454 L 12.783688 214.892205 L 11.986750 222.861592 L 9.595929 224.057008 L 8.998228 224.355859 L 8.848803 224.430571 L 8.798994 224.455475 L 8.798994 231.627920 L 8.848803 231.652824 L 8.998228 231.727536 L 9.595929 232.026387 L 11.986750 233.221803 L 12.783688 245.972809 L 14.776035 249.957503 L 15.971443 253.942196 L 17.565321 253.942196 L 19.159202 256.133789 L 19.308627 256.370381 L 19.345983 256.441981 L 19.358435 256.482450 L 19.308625 256.469997 L 19.159199 256.333021 L 19.022224 256.171140 L 19.000431 256.118218 L 19.009770 256.083973 L 19.050238 256.068407 L 19.121838 256.071520 L 19.358428 256.133780 L 21.550014 257.129963 L 24.737769 257.926889 L 24.737769 259.520773 L 27.128585 259.520773 L 30.316339 264.302407 L 43.067358 264.302407 L 49.442868 264.700871 L 56.615315 265.099349 L 56.615315 262.708524 L 62.193886 260.716177 L 66.975519 257.926889 L 70.960213 257.926889 L 71.557917 257.229577 L 71.757151 256.731484 L 71.956384 256.233403 L 72.554089 255.536079 L 73.351027 255.536079 L 75.144139 250.654827 L 77.335720 247.168230 L 79.128836 244.677791 L 79.726537 242.785058 L 79.328067 239.597306 L 78.929600 236.409555 L 78.132662 233.221803 L 79.726537 233.221803 L 80.523475 230.034036 L 79.427687 223.733225 L 77.734197 218.378802 L 75.443000 213.970750 L 72.554089 210.509049 L 66.776281 204.233154 L 62.193886 197.359564 Z M 358.655075 675.522723 L 359.053538 672.335017 L 359.452001 669.147250 L 358.655075 659.185517 L 357.061191 651.614563 L 355.467308 651.614563 L 355.467308 646.832943 L 353.873455 646.832943 L 353.474988 644.342510 L 352.279571 643.246744 L 348.294878 641.254397 L 345.904068 640.457471 L 344.708652 638.066638 L 344.409801 637.468936 L 344.335089 637.319512 L 344.310185 637.269704 L 340.325491 637.269704 L 339.130075 635.875029 L 338.731608 634.878864 L 333.153031 634.878864 L 326.777528 632.488084 L 318.808141 631.691097 L 315.819628 634.480400 L 311.635680 636.472777 L 304.463251 638.863557 L 304.463251 640.457471 L 303.267830 640.855903 L 302.072441 641.254397 L 302.072441 644.442164 L 295.298444 650.817637 L 293.804186 654.204643 L 293.306097 661.177863 L 294.899980 661.177863 L 294.899980 662.771716 L 293.306097 662.771716 L 292.509170 672.335017 L 297.689269 678.610896 L 302.072441 686.281443 L 305.060957 692.358076 L 305.808089 693.678002 L 305.917046 693.828985 L 305.994873 693.908368 L 306.041569 693.916152 L 306.057134 693.852336 L 309.244871 693.852336 L 309.643338 694.848501 L 310.838754 696.243176 L 313.229564 696.243176 L 321.995908 699.032449 L 331.559147 701.024796 L 337.137736 695.346573 L 342.716301 692.656916 L 345.505585 691.486423 L 348.294866 689.170332 L 353.873455 681.101330 L 355.467308 681.101330 L 355.467308 677.913563 L 357.061191 677.913563 L 357.061191 675.522723 Z M 737.200946 455.567668 L 737.200946 453.973815 L 736.105157 454.471894 L 735.986858 454.503024 L 735.930819 454.496798 L 735.937042 454.453216 L 736.005526 454.372278 L 736.074013 454.303792 L 736.080242 454.297566 L 736.060009 454.317801 L 736.024211 454.353600 L 735.905918 454.471894 L 734.810106 455.567668 Z M 322.792834 173.451405 L 323.589761 169.466711 L 322.992062 163.987753 L 321.198951 158.708037 L 319.405839 153.826782 L 318.808141 149.543245 L 320.402024 149.543245 L 320.402024 136.792224 L 321.995908 136.792224 L 322.394371 133.604465 L 322.792834 130.416713 L 321.995908 128.822837 L 322.792834 128.025896 L 323.390529 127.627430 L 323.589761 126.432020 L 323.191297 125.236607 L 322.792834 124.041202 L 321.995908 121.650385 L 320.402024 121.650385 L 320.402024 117.665692 L 316.815794 112.884064 L 316.417331 107.305488 L 314.823447 107.305488 L 314.823447 104.914678 L 313.229564 104.914678 L 313.229564 101.726919 L 312.233402 101.328453 L 310.838754 100.133043 L 310.838754 96.148350 L 307.850226 93.060217 L 306.854061 88.577434 L 306.057134 79.412639 L 304.463251 79.412639 L 304.463251 76.224884 L 303.267830 75.826413 L 302.072441 75.427946 L 302.072441 72.240190 L 300.478557 72.240190 L 300.080090 69.251666 L 298.884674 68.255497 L 294.899980 66.661621 L 294.899980 65.067742 L 292.509170 65.067742 L 287.329059 60.186486 L 285.635570 58.866561 L 284.539784 58.293764 L 280.555090 55.504479 L 279.758149 52.316724 L 276.570397 50.722846 L 276.570397 45.144275 L 273.382630 36.377951 L 272.037803 34.983304 L 269.597189 33.987131 L 261.428550 33.190197 L 258.240798 33.987136 L 254.256105 34.784073 L 251.068353 33.987136 L 248.677543 33.190197 L 248.677543 31.596319 L 243.895908 31.596319 L 243.895908 30.002442 L 241.505083 30.002442 L 241.505083 28.408565 L 238.317331 28.408565 L 237.918868 27.213157 L 237.520390 26.017749 L 234.332638 26.017749 L 234.332638 24.423871 L 231.941828 24.423871 L 229.949481 22.033055 L 228.754076 20.439178 L 227.160193 20.439178 L 227.160193 15.657546 L 225.566309 15.657546 L 223.573965 12.370171 L 222.378558 10.477445 L 221.581621 9.904644 L 219.987752 9.381654 L 214.409171 8.485098 L 212.018361 13.266731 L 210.424478 13.266731 L 210.424478 15.657546 L 209.179267 17.077097 L 207.037504 18.147983 L 200.064281 19.243770 L 184.922449 20.439178 L 182.531624 15.657546 L 180.937756 15.657546 L 180.937756 13.266731 L 176.554591 10.875910 L 169.780602 10.078976 L 165.596682 15.557933 L 161.014281 19.243770 L 156.332269 21.435354 L 151.849489 22.431525 L 143.880103 22.829994 L 141.190429 22.829994 L 140.518016 22.829994 L 140.349914 22.829994 L 140.293880 22.829994 L 135.512245 22.829994 L 135.113779 25.021576 L 133.918369 26.814687 L 133.121427 26.814687 L 127.542858 33.987136 L 124.355106 33.987136 L 121.964289 38.768767 L 116.385720 35.979482 L 110.010209 33.987136 L 106.822450 37.672982 L 105.826279 38.694056 L 105.228574 39.167236 L 105.041791 39.397600 L 104.879914 39.889458 L 104.630872 41.657659 L 104.431640 48.332031 L 106.025515 48.332031 L 106.025515 53.910600 L 100.546557 58.393379 L 96.860720 63.872333 L 95.142320 66.636723 L 92.776415 68.952824 L 86.102048 72.240190 L 86.102048 70.646314 L 82.117355 70.646314 L 79.925771 73.634839 L 78.132662 74.631008 L 77.435337 75.079282 L 76.937250 76.424110 L 76.538782 81.803453 L 78.630753 83.347522 L 80.125012 85.588906 L 81.320413 92.163656 L 80.523480 99.037258 L 78.132662 103.719265 L 74.845288 106.807409 L 71.358682 108.899371 L 64.983173 112.485594 L 62.891205 115.374489 L 62.193886 120.056509 L 61.396948 120.056509 L 66.178580 124.041202 L 69.764804 128.025896 L 71.757151 132.010589 L 70.960213 135.198340 L 70.163273 139.183034 L 70.561742 140.378446 L 70.960213 141.573851 L 72.554089 141.573851 L 72.554089 151.137113 L 67.772457 154.324865 L 67.772457 155.121807 L 65.182404 157.014541 L 63.787764 157.911095 L 63.389294 158.434082 L 62.990825 159.604581 L 62.193886 163.888135 L 65.879733 166.777037 L 67.373988 169.068233 L 69.366335 176.639156 L 70.960213 176.639156 L 70.163273 179.428445 L 69.366335 182.217718 L 70.960213 182.217718 L 72.952559 185.007006 L 74.944906 187.796294 L 79.726537 187.796294 L 79.726537 189.390178 L 83.711231 189.390178 L 84.109698 190.784812 L 85.305107 193.374871 L 86.102048 193.374871 L 87.297457 194.769507 L 87.695924 195.765681 L 88.094392 196.562622 L 89.289800 197.359564 L 86.898986 210.509049 L 86.102048 226.049343 L 91.680618 227.643227 L 98.853067 228.440168 L 100.048475 228.838632 L 101.243880 229.237110 L 102.040822 230.034036 L 107.619391 229.237110 L 113.197960 228.440168 L 115.887627 231.727539 L 119.175001 233.620266 L 120.743980 234.541725 L 121.864674 236.110694 L 122.761223 241.191190 L 124.355106 241.191190 L 123.956636 242.785058 L 123.558165 244.378941 L 122.761223 245.972809 L 124.355106 251.551386 L 122.761223 251.551386 L 122.761223 257.129963 L 124.355106 257.129963 L 126.546688 260.815803 L 128.339800 262.310061 L 131.328308 262.608908 L 137.106121 262.708524 L 137.106121 261.114656 L 141.887756 260.317714 L 146.669383 259.520773 L 147.067853 260.516946 L 148.263267 261.911582 L 149.857143 262.708524 L 149.857143 268.287101 L 151.451018 268.287101 L 151.749868 271.474856 L 152.646423 273.068736 L 157.029588 275.459546 L 157.029588 276.256472 L 158.623464 275.459546 L 166.592850 273.865662 L 166.592850 270.677911 L 174.960716 269.084042 L 184.922449 268.287101 L 184.947353 268.312005 L 185.022065 268.386717 L 185.320914 268.685566 L 186.516317 269.880969 L 188.110201 270.677911 L 188.907142 279.444239 L 190.501011 279.444239 L 190.501011 282.632006 L 193.688762 283.428932 L 197.274992 283.030469 L 200.861223 281.038122 L 200.861223 275.459546 L 201.857388 272.769877 L 204.845916 271.076389 L 214.409171 269.880969 L 215.206113 271.076385 L 216.003054 271.474852 L 217.596923 272.271794 L 217.596923 275.459546 L 219.190806 275.459546 L 219.987748 279.444239 L 221.980093 281.237350 L 223.175499 281.835049 L 223.823012 281.884857 L 224.968607 282.034284 L 228.754076 282.632006 L 229.351775 281.436585 L 231.144886 279.444239 L 232.738770 277.850355 L 232.340291 275.061082 L 231.941828 272.271794 L 232.937999 270.528482 L 235.129572 269.283266 L 243.098966 268.287101 L 243.098966 270.677911 L 245.489776 270.677911 L 245.489776 273.865662 L 252.662237 273.865662 L 253.060702 272.869495 L 254.256105 271.474852 L 255.849988 270.677911 L 255.849988 265.099349 L 254.256105 265.099349 L 255.849988 264.302407 L 257.443856 256.333021 L 258.639261 254.141437 L 262.225492 252.348328 L 263.819375 251.551386 L 269.397937 252.348328 L 273.158501 251.974765 L 276.470775 250.854073 L 279.334770 248.986249 L 281.750495 246.371288 L 290.915287 234.018730 L 293.306097 233.221803 L 298.087747 230.034036 L 298.087747 227.643227 L 300.877021 222.861592 L 303.666294 217.283030 L 304.463251 209.313644 L 307.651010 205.926644 L 309.244871 203.735067 L 313.229564 198.953432 L 313.229564 196.562622 L 314.823447 196.562622 L 314.823447 191.780987 L 316.417331 191.780987 L 317.214257 184.608543 L 318.808141 184.608543 L 319.605067 180.623849 L 320.402024 176.639156 L 321.995908 176.639156 Z M 723.653013 464.334011 L 726.143424 461.644331 L 728.833066 459.950855 L 731.323530 457.858888 L 733.216253 453.973815 L 730.825413 453.973815 L 729.630023 452.579163 L 729.231560 451.582975 L 712.495860 451.582975 L 710.105027 449.192169 L 709.507325 448.594470 L 709.357901 448.445046 L 709.320545 448.407690 L 709.308093 448.395238 L 709.308093 446.004428 L 707.714240 446.004428 L 707.714240 441.222778 L 706.518820 440.824315 L 705.323399 440.425852 L 705.323399 437.238085 L 703.729546 437.238085 L 704.426849 432.954544 L 706.518820 429.667162 L 713.292786 422.893195 L 711.400063 418.410416 L 708.909599 416.119229 L 702.135632 414.923809 L 694.166246 414.923809 L 685.399932 404.563613 L 685.399932 400.578919 L 683.806079 400.578919 L 684.603006 393.406459 L 685.399932 386.234030 L 686.993785 386.234030 L 681.016745 381.452380 L 677.928632 380.854685 L 672.648926 380.655453 L 670.258093 382.448564 L 667.867306 383.046263 L 664.480297 382.697606 L 661.491780 381.651630 L 658.901737 379.908326 L 656.710152 377.467686 L 648.740765 367.904417 L 648.740765 361.528913 L 648.641134 360.931219 L 648.342272 360.731987 L 648.118140 360.582563 L 647.844200 360.134288 L 647.146852 358.341177 L 644.756072 358.341177 L 644.756072 355.153410 L 641.169811 354.356484 L 636.786685 353.559527 L 634.395845 354.356484 L 632.005065 355.153410 L 632.005065 356.747294 L 626.426458 356.747294 L 626.426458 358.341177 L 620.847912 358.341177 L 620.847912 359.935030 L 618.855565 359.138104 L 617.660145 358.341177 L 608.893832 358.341177 L 608.893832 356.747294 L 606.054710 356.348825 L 603.912934 355.153418 L 602.468492 353.161073 L 601.721371 350.371791 L 601.024059 347.532683 L 599.729040 345.390905 L 597.836303 343.946455 L 595.345838 343.199331 L 595.345838 341.605447 L 593.751984 341.605447 L 593.751984 343.199331 L 586.579524 343.199331 L 581.000978 348.379444 L 576.617814 350.471403 L 571.437677 351.168717 L 571.437677 349.574834 L 561.077511 348.777907 L 561.077511 347.184024 L 557.889744 346.387097 L 553.705819 347.084412 L 550.717284 349.176370 L 545.935664 354.754947 L 540.357087 360.333524 L 536.372401 362.425482 L 530.793817 363.122797 L 526.012197 362.325870 L 526.012197 361.528913 L 519.636694 359.138104 L 513.261190 356.747294 L 513.261190 358.341177 L 509.276497 358.341177 L 509.276497 359.935030 L 507.682613 359.935030 L 506.487193 363.122797 L 506.088730 367.904417 L 507.682613 367.904417 L 507.682613 369.498300 L 506.088730 369.498300 L 506.088730 373.482993 L 502.104037 379.061570 L 498.119343 383.843189 L 495.330066 385.138222 L 491.743840 385.835536 L 484.172916 386.632493 L 480.785922 387.429423 L 477.797413 389.023303 L 475.705439 391.712964 L 475.008109 395.797269 L 475.406603 400.180456 L 475.805066 404.563613 L 475.107748 409.843334 L 473.015763 412.931462 L 468.632606 415.720735 L 468.632606 417.314619 L 459.069336 418.111576 L 454.686183 419.107741 L 453.391162 420.352957 L 452.693832 422.096269 L 452.693832 430.065655 L 451.996522 430.663350 L 451.498443 430.862582 L 451.000337 431.061814 L 450.303023 431.659508 L 450.303023 435.644202 L 448.709139 435.644202 L 448.709139 441.222778 L 447.115256 441.222778 L 444.724450 446.203645 L 443.927519 451.582975 L 444.724446 455.567668 L 445.521403 458.755435 L 448.709150 459.950832 L 450.303023 463.537054 L 451.099949 473.897281 L 441.935173 479.475827 L 440.017533 481.069704 L 438.647797 483.460517 L 437.552016 490.632980 L 442.732099 494.219210 L 448.709139 497.805440 L 448.709139 506.571753 L 449.506096 506.571753 L 449.506096 507.368680 L 449.518548 507.393584 L 449.555904 507.468296 L 449.705328 507.767147 L 450.303023 508.962563 L 448.709139 508.962563 L 443.927519 518.525833 L 442.134408 523.108217 L 441.536709 530.479913 L 447.513749 536.456953 L 450.203403 540.342038 L 451.099949 543.230919 L 452.693832 543.230919 L 452.693832 545.621759 L 454.287716 545.621759 L 454.287716 558.372766 L 454.985030 558.970460 L 455.483136 559.169692 L 455.981215 559.368924 L 456.678526 559.966619 L 456.678526 563.951312 L 463.054029 567.936005 L 463.054029 571.123772 L 465.843333 575.506959 L 468.632606 580.687072 L 471.023416 580.687072 L 471.123032 581.259859 L 471.421883 582.181302 L 472.617299 585.070198 L 475.805066 592.242658 L 479.391296 599.415118 L 481.084780 602.304015 L 482.180570 603.798244 L 485.368337 603.798244 L 486.962201 605.989845 L 491.743840 607.782937 L 502.104037 610.970704 L 502.104037 611.767631 L 507.782233 615.154629 L 510.471887 617.346238 L 512.763088 618.541627 L 517.245884 618.940091 L 517.245884 620.534004 L 521.230577 623.721710 L 526.012197 626.112551 L 527.606080 630.097244 L 533.981584 630.495738 L 540.357087 630.894170 L 547.131084 630.495738 L 553.905051 630.097244 L 557.092817 634.878864 L 558.686671 634.878864 L 558.686671 637.269704 L 561.077511 638.863557 L 561.077511 641.254397 L 564.265278 644.442164 L 566.656057 644.442164 L 566.656057 646.036017 L 568.349564 645.537923 L 568.555021 645.506787 L 568.673312 645.513008 L 568.704439 645.556587 L 568.648404 645.637523 L 568.579919 645.706010 L 568.573697 645.712240 L 568.593934 645.692008 L 568.629736 645.656211 L 568.748035 645.537923 L 569.843824 644.442164 L 572.234665 644.442164 L 572.234665 642.848250 L 575.422371 641.254397 L 575.422371 638.863557 L 579.805558 635.277357 L 584.188745 631.691097 L 595.345838 631.691097 L 598.932098 639.262050 L 603.315224 646.036017 L 608.893832 646.036017 L 611.483896 642.748649 L 612.878525 639.262050 L 614.472378 632.886517 L 617.261651 628.104897 L 620.150586 626.610645 L 624.832605 626.112551 L 627.621878 628.602984 L 631.208078 629.698750 L 639.974452 630.097244 L 641.568305 626.112551 L 641.618113 626.087647 L 641.767538 626.012935 L 642.365239 625.714087 L 644.756072 624.518698 L 645.552999 616.549311 L 647.246483 615.353868 L 649.139198 614.955397 L 650.633473 614.158463 L 651.131545 611.767631 L 659.897919 611.767631 L 661.890243 613.859631 L 664.679539 615.353891 L 669.461159 617.346238 L 669.461159 616.549311 L 672.549318 614.556934 L 673.844346 611.767631 L 674.242779 604.595231 L 672.648926 604.595231 L 672.648926 598.219698 L 677.928647 595.231170 L 685.798426 592.641152 L 692.672008 589.851848 L 694.390384 588.158355 L 694.963172 586.265618 L 696.557086 586.265618 L 696.557086 580.687072 L 694.963172 580.687072 L 696.058984 575.208081 L 696.158592 571.522265 L 697.453621 567.836404 L 702.135632 562.357459 L 702.135632 558.372766 L 704.924906 556.380419 L 707.714240 554.388072 L 707.714240 552.794219 L 710.901946 552.794219 L 710.926850 552.744411 L 711.001563 552.594987 L 711.300417 551.997285 L 712.495860 549.606453 L 714.886639 549.606453 L 718.074406 547.215612 L 718.074406 537.652373 L 714.986278 535.261540 L 713.691280 532.870753 L 713.292786 524.901336 L 717.078240 523.705920 L 718.223829 523.407069 L 718.871333 523.307453 L 719.668320 524.104410 L 720.266015 524.204026 L 720.465246 524.502873 L 720.564862 524.677201 L 720.863710 524.801720 L 722.059099 524.901336 L 722.059099 523.307453 L 725.246866 522.211679 L 728.434633 522.112063 L 729.829290 521.887926 L 730.825466 520.817046 L 731.622400 516.135023 L 730.825413 516.135023 L 728.036162 510.755675 L 726.342675 509.410841 L 724.449940 508.962563 L 720.066776 507.567931 L 714.886639 503.383987 L 714.886639 493.820747 L 716.480553 493.820747 L 716.480553 489.039097 L 718.074406 489.039097 L 721.660636 486.249805 L 724.449940 485.851361 L 725.545715 485.652123 L 726.442264 484.257481 L 727.637707 477.881974 L 726.442264 477.184637 L 726.143410 476.910690 L 726.043793 476.686554 L 725.944177 476.462418 L 725.645330 476.188471 L 724.449940 475.491134 L 722.059099 475.491134 L 720.963310 473.996893 L 720.863679 472.701861 L 720.465246 469.912588 L 722.059099 469.912588 L 723.055303 468.418320 L 722.856026 467.123284 L 722.656802 465.828275 L 723.653013 464.334011 Z M 592.158131 222.861592 L 590.564218 215.290684 L 588.173438 209.313644 L 586.579524 209.313644 L 583.391757 196.961086 L 581.399433 191.681368 L 578.610137 187.796294 L 578.610137 184.608543 L 571.437677 179.029966 L 571.437677 175.045273 L 566.656057 172.654463 L 566.656057 165.482018 L 563.866761 162.493491 L 563.368676 161.746365 L 563.468290 161.497325 L 563.549238 161.491099 L 563.592828 161.472420 L 563.599059 161.441290 L 563.567932 161.397707 L 563.393605 161.273184 L 563.069850 161.098852 L 560.280584 159.903442 L 560.280584 158.309558 L 558.387838 157.114155 L 555.897397 156.715690 L 550.318851 156.715690 L 547.629167 156.217607 L 545.138737 154.723343 L 543.146379 151.834441 L 541.950970 147.152420 L 538.763204 147.152420 L 537.916467 144.711788 L 536.173177 142.968486 L 533.533322 141.922509 L 529.996890 141.573851 L 524.418313 143.167727 L 518.939360 142.769261 L 515.253537 141.573851 L 510.870350 137.987629 L 507.284150 134.401406 L 504.594474 133.205997 L 500.510153 132.807531 L 499.314737 134.002937 L 499.015886 134.301789 L 498.941174 134.376502 L 498.916270 134.401406 L 498.878914 134.426310 L 498.766846 134.501023 L 498.318571 134.799872 L 496.525460 135.995282 L 496.525460 138.386100 L 493.337723 138.386100 L 492.540778 140.776916 L 490.149956 141.573851 L 481.383643 139.979975 L 472.617299 138.386100 L 469.828014 142.071950 L 466.241800 145.160085 L 461.858642 147.650513 L 456.678526 149.543245 L 448.709139 149.543245 L 446.318329 152.332518 L 444.724446 155.121807 L 441.536709 155.121807 L 439.145869 157.911095 L 437.552016 160.700383 L 434.364249 160.700383 L 434.333119 160.563407 L 434.239729 160.550951 L 434.084078 160.663018 L 433.866166 160.899607 L 432.371902 163.091193 L 427.988746 171.060580 L 423.207095 180.623849 L 420.019359 187.796294 L 416.034665 187.796294 L 411.651509 193.374871 L 408.065279 197.359564 L 408.463742 201.742721 L 408.862205 206.125877 L 410.456089 206.125877 L 408.164895 212.800248 L 406.072932 216.884552 L 402.088239 220.470782 L 398.900472 222.463128 L 398.003929 224.555089 L 397.705082 228.440168 L 400.892818 228.440168 L 408.862205 238.800365 L 408.862205 253.942196 L 404.279809 258.524595 L 401.689775 264.302407 L 411.651509 267.888622 L 415.935042 270.379050 L 421.613242 275.459546 L 421.613242 279.444239 L 423.207095 279.444239 L 423.207095 282.632006 L 424.800979 282.632006 L 425.199446 284.026634 L 426.394862 286.616699 L 425.099830 288.011328 L 424.402516 290.601392 L 424.103668 293.191433 L 424.004052 294.586085 L 425.996399 298.969242 L 429.084527 301.061200 L 434.364249 301.758515 L 434.364249 300.164631 L 439.942826 300.164631 L 439.942826 301.758515 L 446.517576 304.647423 L 448.161250 306.465443 L 448.709139 308.532512 L 450.303023 318.494245 L 451.099949 320.088098 L 456.678526 320.088098 L 458.770492 318.793088 L 461.858639 318.095751 L 469.429563 317.697288 L 477.797413 323.674328 L 483.874061 325.766301 L 491.743840 326.463631 L 498.119343 325.666674 L 505.291803 323.275864 L 507.284139 319.091932 L 510.073423 317.697288 L 514.157740 318.195371 L 516.847390 319.689634 L 519.138599 321.183898 L 522.027504 321.681981 L 529.996894 320.984667 L 534.778510 318.892708 L 540.357087 312.118711 L 545.935664 312.118711 L 545.935664 310.524858 L 549.820749 308.233649 L 551.912704 306.141671 L 553.108124 302.555472 L 552.311198 300.961588 L 552.809269 299.566940 L 554.303544 298.570778 L 557.391657 297.973057 L 562.671364 297.773822 L 562.671364 299.367705 L 566.257624 298.570778 L 569.843824 297.773822 L 569.843824 288.210552 L 567.851477 287.015162 L 566.656057 285.819742 L 566.855289 284.624326 L 567.452984 284.225858 L 568.249971 283.428932 L 567.851500 282.034292 L 566.656057 279.444239 L 568.249971 279.444239 L 570.441527 276.356095 L 572.234665 275.061082 L 574.824683 273.566822 L 579.407064 269.880969 L 581.000978 269.880969 L 581.000978 264.302407 L 582.594831 264.302407 L 582.893693 262.210439 L 583.790251 260.716177 L 586.579524 257.926889 L 586.579524 246.769751 L 588.173438 246.769751 L 588.173438 242.785058 L 588.223246 242.137546 L 588.372670 241.788886 L 588.621709 241.739077 L 588.970365 241.988116 L 589.319020 242.237164 L 589.568059 242.187359 L 589.717483 241.838701 L 589.767291 241.191190 L 588.173438 241.191190 L 586.977995 237.604965 L 586.579524 233.221803 L 587.077619 229.934419 L 588.571871 228.041690 L 590.066146 226.148969 L 590.564218 222.861592 Z" transform="scale(0.240000,0.240000) translate(401.999999,1293.999998)" fill="#ffffff" opacity="1.000000"></path>
        <path d="M 30.431180 220.477003 L 36.866064 205.020444 L 34.749711 175.464370 L 39.145686 166.164713 L 44.485419 162.483430 L 47.668185 160.800607 L 51.089251 159.910339 L 54.748631 159.812630 L 58.646334 160.507481 L 74.996852 167.646317 L 105.435499 171.473601 L 121.365379 175.734930 L 134.010504 182.656749 L 142.982380 199.633771 L 149.419012 228.587014 L 155.807431 242.131926 L 168.678947 255.628609 L 181.534392 263.989182 L 201.277501 270.042923 L 261.925495 281.155055 L 278.486332 289.732645 L 290.532642 302.610423 L 309.075209 330.608509 L 320.803361 340.472138 L 339.721264 345.906974 L 354.332514 345.336288 L 330.571212 337.763418 L 316.259603 324.467679 L 282.024959 269.541864 L 269.784401 260.361442 L 219.006739 246.403948 L 202.656221 239.265112 L 189.784705 225.768429 L 165.528231 169.572647 L 154.922014 156.493925 L 138.781816 150.793843 L 107.728281 147.786408 L 95.293475 142.303342 L 82.826526 126.548056 L 83.638573 111.998424 L 92.128436 95.521072 L 105.375289 86.454505 L 119.638684 84.341914 L 135.676402 90.178638 L 148.650399 103.538680 L 170.539093 159.453142 L 183.513090 172.813183 L 200.181765 182.966168 L 246.760611 192.493535 L 262.075603 197.574713 L 275.756255 206.554190 L 289.676456 237.277069 L 291.779649 251.664606 L 305.429906 294.781666 L 316.861329 308.479293 L 348.947478 323.576814 L 440.392919 332.593762 L 455.497592 336.236186 L 474.010928 343.929624 L 486.564287 354.412158 L 494.290318 367.892769 L 510.718280 410.744582 L 519.371998 424.707455 L 530.924884 433.372123 L 551.776304 442.819125 L 567.423079 444.306097 L 580.758787 441.711243 L 550.457674 437.987110 L 533.969622 430.745123 L 524.803498 417.465457 L 512.744028 389.419142 L 506.307396 360.465899 L 493.422720 331.800679 L 483.852029 320.779616 L 465.025893 311.784065 L 449.886166 307.901849 L 404.286132 304.232647 L 373.426846 297.527856 L 357.076328 290.389020 L 346.486182 282.446408 L 332.983708 264.633464 L 330.090362 249.866814 L 332.204967 235.013087 L 341.115469 221.413242 L 357.242508 211.944787 L 372.751748 213.328609 L 386.238151 226.005443 L 393.964182 239.486053 L 405.546300 268.455368 L 414.814904 281.598393 L 431.062941 288.873870 L 461.275198 286.126291 L 476.169552 288.329961 L 491.694864 294.849892 L 502.495329 304.231258 L 493.226724 291.088234 L 478.915115 277.792495 L 448.193363 271.190854 L 431.842845 264.052018 L 421.236628 250.973296 L 398.420247 194.576570 L 387.409463 183.756451 L 369.316766 178.940520 L 324.088692 184.517388 L 295.033423 184.289667 L 285.341269 178.301562 L 273.055408 143.680383 L 260.183892 130.183700 L 245.289539 127.980030 L 215.271530 127.030253 L 199.848699 120.373681 L 189.754888 106.611751 L 186.964023 91.708460 L 191.958814 76.452845 L 197.794882 66.952244 L 217.206674 54.823299 L 231.157269 51.408596 L 246.876829 54.231171 L 262.612460 62.189856 L 271.778584 75.469522 L 285.477055 133.994912 L 299.502648 154.548721 L 307.406856 159.195865 L 323.023935 162.155082 L 382.623243 156.041018 L 397.307277 156.805935 L 412.730108 163.462508 L 421.998713 176.605532 L 438.426675 219.457345 L 446.977912 233.556860 L 461.289521 246.852599 L 477.640039 253.991435 L 489.443887 255.158240 L 469.509440 242.769428 L 456.637924 229.272745 L 448.911894 215.792135 L 443.000827 201.324223 L 438.141822 172.273187 L 425.944818 144.123721 L 417.619971 136.599070 L 410.613755 133.906433 L 380.733280 133.059808 L 336.222574 137.680186 L 320.923653 137.735118 L 308.278527 130.813298 L 301.571951 114.254237 L 309.446928 98.596734 L 322.273141 86.652659 L 336.838624 82.418108 L 352.363935 88.938039 L 373.889169 116.397595 L 388.818576 118.841058 L 404.117498 118.786125 L 419.119689 122.565191 L 432.590021 130.105915 L 419.718505 116.609233 L 403.578307 110.909150 L 388.171548 109.388686 L 372.646236 102.868756 L 363.480111 89.589090 L 356.266487 75.425272 L 345.255702 64.605153 L 327.235791 61.124824 L 312.147188 62.618510 L 297.565635 61.716952 L 284.305622 55.614982 L 273.176286 39.795394 L 265.927607 25.391784 L 254.916823 14.571665 L 236.106758 10.712224 L 221.735524 11.249419 L 178.413949 23.166716 L 163.290294 24.420610 L 134.323881 30.664602 L 119.639847 29.899685 L 104.637655 26.120620 L 74.396167 8.563552 L 58.074880 21.729363 L 44.407389 27.918423 L 30.143993 30.031013 L 38.214967 55.085955 L 38.843014 69.434644 L 36.113522 85.108220 L 31.118732 100.363835 L 15.441563 133.014445 L 8.917358 163.776183 L 11.123032 178.027078 L 23.994548 191.523761 L 32.545785 205.623276 Z" transform="scale(0.240000,0.240000) translate(-128.000000,-76.000000)" fill="#ffffff" opacity="1.000000"></path>
        <path d="M 521.955176 306.371390 L 513.399081 320.762575 L 511.314309 350.320892 L 505.647347 358.905398 L 499.840669 361.794532 L 496.451905 363.010331 L 492.939320 363.407840 L 489.302901 362.987054 L 485.542638 361.747969 L 470.366034 352.368572 L 440.774570 344.275085 L 425.607436 337.803763 L 414.068293 329.163223 L 407.587500 311.088015 L 405.310161 281.515492 L 400.901487 267.203255 L 390.068053 252.021916 L 378.524174 241.927339 L 359.835620 233.142347 L 301.368662 213.564988 L 286.187322 202.731554 L 276.083275 188.279601 L 261.686593 157.940599 L 251.471241 146.517495 L 233.512073 138.461890 L 218.966967 136.960501 L 241.418492 147.817611 L 253.705962 163.003685 L 279.828856 222.218971 L 290.648084 233.038199 L 338.941519 254.036449 L 354.118123 263.415845 L 364.951556 278.597185 L 381.016966 337.658549 L 389.666976 352.105766 L 404.838845 360.031126 L 435.154960 367.399962 L 446.689369 374.586465 L 456.802886 391.946492 L 453.941375 406.235053 L 443.206592 421.346153 L 428.810673 428.448210 L 414.391867 428.522422 L 399.340773 420.476288 L 388.386564 405.415724 L 374.625353 346.967706 L 363.671144 331.907142 L 348.605845 319.498896 L 303.842512 303.480050 L 289.400030 296.284076 L 277.126765 285.460113 L 267.691335 253.077404 L 267.643982 238.537033 L 260.228583 193.922887 L 250.849187 178.746283 L 221.220630 159.262839 L 131.969450 137.404195 L 117.531702 131.662258 L 100.292450 121.427965 L 89.347712 109.275475 L 83.605776 94.837728 L 73.403078 50.093336 L 66.810980 35.046978 L 56.599574 24.835572 L 37.293728 12.534685 L 22.014501 8.849872 L 8.445856 9.532695 L 37.915756 17.504618 L 53.213924 27.005578 L 60.409897 41.448061 L 68.381820 70.917961 L 70.659158 100.490484 L 79.360467 130.689770 L 87.276356 142.953565 L 104.641118 154.521120 L 119.079655 160.505395 L 163.702483 170.586529 L 193.303417 181.588090 L 208.480021 190.967487 L 217.840477 200.327943 L 228.688116 219.871393 L 229.464066 234.898810 L 225.270082 249.304200 L 214.525828 261.507226 L 197.221835 268.599813 L 182.064172 265.036565 L 170.506087 250.579877 L 164.764151 236.142130 L 157.395315 205.826014 L 150.078566 191.504307 L 135.022738 182.004135 L 104.725563 180.451447 L 90.292551 176.163548 L 75.845333 167.513538 L 66.480143 156.699045 L 73.796891 171.020753 L 86.084362 186.206827 L 115.563732 197.086824 L 130.740336 206.466220 L 139.390347 220.913438 L 154.001719 279.970067 L 163.371645 292.238597 L 180.601427 299.564816 L 226.163623 300.440205 L 254.894666 304.774667 L 263.642564 312.073264 L 270.908777 348.083963 L 281.742211 363.265302 L 296.175223 367.553201 L 325.757217 372.738614 L 340.083659 381.509400 L 348.129794 396.560493 L 348.784968 411.708686 L 341.682910 426.104605 L 334.561911 434.684376 L 313.629928 443.946181 L 299.336632 445.353655 L 284.174233 440.336370 L 269.722280 430.232322 L 262.526307 415.789840 L 257.242244 355.915407 L 246.264359 333.584658 L 239.096797 327.866398 L 224.055174 322.728337 L 164.190211 320.352348 L 149.761934 317.518486 L 135.435492 308.747700 L 128.118743 294.425993 L 117.916045 249.681601 L 111.444723 234.514467 L 99.157252 219.328393 L 83.980648 209.948996 L 72.460446 207.124605 L 90.442500 222.208056 L 101.275934 237.389395 L 107.017870 251.827142 L 110.823458 266.985594 L 111.525195 296.431818 L 119.618682 326.023282 L 126.795714 334.649616 L 133.350719 338.306018 L 162.811149 343.369866 L 207.527919 345.090681 L 222.680846 347.199893 L 234.219990 355.840432 L 238.517360 373.181519 L 228.507228 387.567968 L 214.120779 397.578100 L 199.102832 399.710224 L 184.655614 391.060214 L 167.230083 360.832517 L 152.796281 356.302278 L 137.643353 354.193067 L 123.326381 348.330355 L 111.057852 338.960429 L 121.891285 354.141768 L 137.063154 362.067128 L 152.100041 365.751152 L 166.547260 374.401162 L 173.743234 388.843644 L 178.881293 403.885267 L 188.251220 416.153797 L 205.597830 422.147544 L 220.746023 422.802717 L 235.053524 425.757355 L 247.317319 433.673244 L 256.097575 450.907760 L 261.236425 466.191723 L 270.606351 478.460253 L 288.681558 484.941046 L 302.984325 486.441646 L 347.555854 480.770711 L 362.704836 481.668225 L 392.263154 479.583453 L 406.691431 482.417315 L 421.008403 488.280026 L 448.463007 509.937423 L 466.482181 499.212110 L 480.887571 495.018127 L 495.306378 494.943915 L 490.859821 468.999381 L 492.267295 454.706085 L 497.185930 439.576045 L 504.287988 425.180125 L 524.425081 395.074755 L 535.234076 365.544848 L 535.065949 351.125253 L 524.232515 335.943914 L 517.761193 320.776780 Z" transform="scale(0.240000,0.240000) translate(2120.999997,1695.999997)" fill="#ffffff" opacity="1.000000"></path>
    </g>
</svg>